<svg width="136" height="40" viewBox="0 0 136 40" fill="none" xmlns="http://www.w3.org/2000/svg">
<path d="M18.75 10.4498C19.45 9.85982 20.58 9.85982 21.26 10.4498L22.84 11.7998C23.14 12.0498 23.71 12.2598 24.11 12.2598H25.81C26.87 12.2598 27.74 13.1298 27.74 14.1898V15.8898C27.74 16.2898 27.95 16.8498 28.2 17.1498L29.55 18.7298C30.14 19.4298 30.14 20.5598 29.55 21.2398L28.2 22.8198C27.95 23.1198 27.74 23.6798 27.74 24.0798V25.7798C27.74 26.8398 26.87 27.7098 25.81 27.7098H24.11C23.71 27.7098 23.15 27.9198 22.85 28.1698L21.27 29.5198C20.57 30.1098 19.44 30.1098 18.76 29.5198L17.18 28.1698C16.88 27.9198 16.31 27.7098 15.92 27.7098H14.17C13.11 27.7098 12.24 26.8398 12.24 25.7798V24.0698C12.24 23.6798 12.04 23.1098 11.79 22.8198L10.44 21.2298C9.86 20.5398 9.86 19.4198 10.44 18.7298L11.79 17.1398C12.04 16.8398 12.24 16.2798 12.24 15.8898V14.1998C12.24 13.1398 13.11 12.2698 14.17 12.2698H15.9C16.3 12.2698 16.86 12.0598 17.16 11.8098L18.75 10.4498Z" fill="#436AB5" stroke="#436AB5" stroke-opacity="0.14" stroke-width="1.5" stroke-linecap="round" stroke-linejoin="round"/>
<path d="M16.5 23.9401L20 16.0601L23.5 23.9401" fill="#436AB5"/>
<path d="M16.5 23.9401L20 16.0601L23.5 23.9401" stroke="white" stroke-width="1.5" stroke-linejoin="bevel"/>
<path d="M21.75 21.3101H18.25" stroke="white" stroke-width="1.5" stroke-linecap="round" stroke-linejoin="round"/>
<path d="M62.9277 11.8613L70.8496 29H66.7109L65.416 25.8262H58.6875L57.3926 29H53.2539L61.1758 11.8613H62.9277ZM62.0645 17.625L59.9316 22.8301H64.1973L62.0645 17.625ZM81.4629 19.7832H87.252V26.7148C86.541 27.4596 85.6354 28.0944 84.5352 28.6191C83.4518 29.127 82.2246 29.3809 80.8535 29.3809C79.6348 29.3809 78.4837 29.1693 77.4004 28.7461C76.3171 28.306 75.3607 27.6966 74.5312 26.918C73.7018 26.1224 73.0501 25.1829 72.5762 24.0996C72.1022 23.0163 71.8652 21.8145 71.8652 20.4941C71.8652 19.1738 72.1022 17.972 72.5762 16.8887C73.0501 15.8053 73.7018 14.8743 74.5312 14.0957C75.3607 13.3001 76.3171 12.6908 77.4004 12.2676C78.4837 11.8275 79.6348 11.6074 80.8535 11.6074C81.9199 11.6074 82.8424 11.7598 83.6211 12.0645C84.3997 12.3522 85.0768 12.75 85.6523 13.2578V16.8125C85.2461 16.5078 84.8229 16.2116 84.3828 15.9238C83.9427 15.6361 83.4434 15.3991 82.8848 15.2129C82.3431 15.0267 81.6999 14.9336 80.9551 14.9336C79.9395 14.9336 79.0169 15.179 78.1875 15.6699C77.3581 16.1608 76.6979 16.821 76.207 17.6504C75.7161 18.4798 75.4707 19.4277 75.4707 20.4941C75.4707 21.5436 75.7161 22.4915 76.207 23.3379C76.6979 24.1673 77.3581 24.8275 78.1875 25.3184C79.0169 25.7923 79.9395 26.0293 80.9551 26.0293C81.7337 26.0293 82.36 25.9362 82.834 25.75C83.3079 25.5638 83.6803 25.3607 83.9512 25.1406L83.9766 22.3223H81.4629V19.7832ZM100.252 25.8262V29H90.9844V25.8262H93.8535V15.1621H90.9844V11.9883H100.252V15.1621H97.3828V25.8262H100.252ZM108.732 11.9883V25.8262H117.238V29H105.203V11.9883H108.732ZM132.422 18.8945V21.7637H124.906V25.877H133.412V29H121.377V11.9883H133.412V15.0352H124.906V18.8945H132.422Z" fill="#436AB5"/>
</svg>
