<svg width="25" height="25" viewBox="0 0 25 25" fill="none" xmlns="http://www.w3.org/2000/svg">
<g clip-path="url(#clip0_247_10706)">
<path fill-rule="evenodd" clip-rule="evenodd" d="M15.625 19.5312C15.625 19.7385 15.5427 19.9372 15.3962 20.0837C15.2497 20.2302 15.051 20.3125 14.8438 20.3125H2.34375C2.13655 20.3125 1.93784 20.2302 1.79132 20.0837C1.64481 19.9372 1.5625 19.7385 1.5625 19.5312V5.46875C1.5625 5.26155 1.64481 5.06284 1.79132 4.91632C1.93784 4.76981 2.13655 4.6875 2.34375 4.6875H14.8438C15.051 4.6875 15.2497 4.76981 15.3962 4.91632C15.5427 5.06284 15.625 5.26155 15.625 5.46875V8.59375C15.625 8.80095 15.7073 8.99966 15.8538 9.14618C16.0003 9.29269 16.199 9.375 16.4062 9.375C16.6135 9.375 16.8122 9.29269 16.9587 9.14618C17.1052 8.99966 17.1875 8.80095 17.1875 8.59375V5.46875C17.1875 4.84715 16.9406 4.25101 16.501 3.81147C16.0615 3.37193 15.4654 3.125 14.8438 3.125H2.34375C1.72215 3.125 1.12601 3.37193 0.686468 3.81147C0.24693 4.25101 0 4.84715 0 5.46875L0 19.5312C0 20.1529 0.24693 20.749 0.686468 21.1885C1.12601 21.6281 1.72215 21.875 2.34375 21.875H14.8438C15.4654 21.875 16.0615 21.6281 16.501 21.1885C16.9406 20.749 17.1875 20.1529 17.1875 19.5312V16.4062C17.1875 16.199 17.1052 16.0003 16.9587 15.8538C16.8122 15.7073 16.6135 15.625 16.4062 15.625C16.199 15.625 16.0003 15.7073 15.8538 15.8538C15.7073 16.0003 15.625 16.199 15.625 16.4062V19.5312Z" fill="#A5AAB5"/>
<path fill-rule="evenodd" clip-rule="evenodd" d="M24.7719 13.0531C24.8446 12.9806 24.9024 12.8944 24.9417 12.7994C24.9811 12.7045 25.0014 12.6028 25.0014 12.5C25.0014 12.3973 24.9811 12.2955 24.9417 12.2006C24.9024 12.1057 24.8446 12.0195 24.7719 11.9469L20.0844 7.25939C19.9377 7.11269 19.7387 7.03027 19.5312 7.03027C19.3238 7.03027 19.1248 7.11269 18.9781 7.25939C18.8314 7.40608 18.749 7.60505 18.749 7.81251C18.749 8.01997 18.8314 8.21894 18.9781 8.36564L22.3328 11.7188H8.59375C8.38655 11.7188 8.18784 11.8011 8.04132 11.9476C7.89481 12.0941 7.8125 12.2928 7.8125 12.5C7.8125 12.7072 7.89481 12.9059 8.04132 13.0524C8.18784 13.199 8.38655 13.2813 8.59375 13.2813H22.3328L18.9781 16.6344C18.8314 16.7811 18.749 16.9801 18.749 17.1875C18.749 17.395 18.8314 17.5939 18.9781 17.7406C19.1248 17.8873 19.3238 17.9697 19.5312 17.9697C19.7387 17.9697 19.9377 17.8873 20.0844 17.7406L24.7719 13.0531Z" fill="#A5AAB5"/>
</g>
<defs>
<clipPath id="clip0_247_10706">
<rect width="25" height="25" fill="white"/>
</clipPath>
</defs>
</svg>
