<svg width="65" height="65" viewBox="0 0 65 65" fill="none" xmlns="http://www.w3.org/2000/svg">
<circle cx="32.5" cy="32.5" r="32.5" fill="#C7F1F3"/>
<path opacity="0.35" d="M41.2355 46.1081H22.6641C20.0997 46.1081 18.0212 44.0297 18.0212 41.4653V22.8938C18.0212 20.3294 20.0997 18.251 22.6641 18.251H41.2355C43.7999 18.251 45.8784 20.3294 45.8784 22.8938V41.4653C45.8784 44.0297 43.7999 46.1081 41.2355 46.1081Z" fill="#24BDC7"/>
<path d="M45.8784 36.8225V41.4654C45.8784 44.0298 43.7999 46.1082 41.2355 46.1082H22.6641C20.0997 46.1082 18.0212 44.0298 18.0212 41.4654V36.8225H24.741C25.9806 36.8225 27.1893 37.4895 27.6706 38.6317C28.3748 40.2985 30.023 41.4654 31.9498 41.4654C33.8766 41.4654 35.5248 40.2985 36.229 38.6317C36.7103 37.4895 37.9174 36.8225 39.1586 36.8225H45.8784Z" fill="#24BDC7"/>
</svg>
