<svg width="488" height="454" viewBox="0 0 488 454" fill="none" xmlns="http://www.w3.org/2000/svg">
<g clip-path="url(#clip0_337_2918)">
<path d="M71.4664 419.88C166.754 465.372 321.246 465.374 416.534 419.88C511.821 374.385 511.821 300.628 416.534 255.136C321.246 209.645 166.753 209.642 71.465 255.136C-23.8226 300.63 -23.8226 374.385 71.4664 419.88Z" fill="#E7F6ED" fill-opacity="0.76"/>
<path d="M64.1633 373.268L75.3977 366.77C81.6846 361.641 86.4727 354.907 89.2568 347.279C92.7291 337.693 92.2507 330.401 89.7601 326.746C86.6971 322.248 78.7719 323.033 78.458 332.516C77.8357 351.189 72.3969 364.107 64.1633 373.268Z" fill="#FF9900"/>
<path opacity="0.2" d="M64.1633 373.268L75.3977 366.77C81.6846 361.641 86.4727 354.907 89.2568 347.279C92.7291 337.693 92.2507 330.401 89.7601 326.746C86.6971 322.248 78.7719 323.033 78.458 332.516C77.8357 351.189 72.3969 364.107 64.1633 373.268Z" fill="black"/>
<path d="M64.1649 373.96C64.0174 373.961 63.8736 373.914 63.7546 373.826C63.6356 373.739 63.5476 373.616 63.5034 373.475C63.4592 373.334 63.4612 373.183 63.5091 373.043C63.5569 372.903 63.6481 372.782 63.7693 372.698C89.7672 354.681 84.728 329.58 84.6741 329.328C84.6549 329.239 84.6535 329.147 84.6697 329.057C84.686 328.968 84.7198 328.882 84.769 328.806C84.8182 328.729 84.882 328.663 84.9568 328.612C85.0315 328.56 85.1156 328.523 85.2044 328.504C85.2932 328.485 85.3849 328.483 85.4743 328.5C85.5637 328.516 85.649 328.55 85.7253 328.599C85.8016 328.649 85.8675 328.712 85.9192 328.787C85.9709 328.862 86.0074 328.946 86.0265 329.035C86.0819 329.296 91.3353 355.275 64.5576 373.837C64.4426 373.918 64.3053 373.961 64.1649 373.96V373.96Z" fill="white"/>
<path d="M41.6946 386.262C41.6946 386.262 37.7838 383.076 38.7297 378.754C39.6756 374.433 42.1993 371.33 37.8627 365.76C33.526 360.19 32.4059 352.765 37.5059 348.74C41.4484 345.627 47.6008 350.038 49.8217 341.792C51.4424 335.78 50.8892 322.47 58.5461 318.041C66.2031 313.613 70.956 320.28 69.7805 329.307C68.7282 337.385 67.2485 345.162 68.3894 347.279C70.6227 351.418 74.4615 350.862 74.2873 358.452C74.1241 365.516 67.4546 371.364 67.4546 371.364L41.6946 386.262Z" fill="#24BDC7"/>
<path d="M54.5467 379.522C54.3768 379.523 54.2125 379.462 54.0849 379.349C53.9574 379.237 53.8757 379.081 53.8553 378.912C51.8764 362.499 56.592 334.161 60.493 325.737C60.5735 325.576 60.7134 325.453 60.883 325.394C61.0526 325.334 61.2387 325.343 61.4017 325.419C61.5648 325.495 61.692 325.631 61.7565 325.799C61.821 325.967 61.8177 326.154 61.7473 326.319C57.9154 334.597 53.3353 363.059 55.2284 378.748C55.2499 378.93 55.1985 379.113 55.0855 379.257C54.9725 379.401 54.8071 379.494 54.6255 379.516C54.5994 379.52 54.5731 379.522 54.5467 379.522V379.522Z" fill="white"/>
<path d="M54.1693 366.745C54.0644 366.744 53.9609 366.72 53.8665 366.674C49.0693 364.319 46.027 355.978 45.8998 355.623C45.8659 355.537 45.8497 355.445 45.852 355.352C45.8544 355.259 45.8754 355.168 45.9136 355.083C45.9519 354.999 46.0067 354.923 46.0748 354.86C46.1429 354.797 46.2229 354.749 46.3101 354.718C46.3973 354.686 46.4898 354.673 46.5823 354.678C46.6747 354.683 46.7652 354.707 46.8483 354.748C46.9314 354.789 47.0054 354.846 47.066 354.916C47.1266 354.986 47.1725 355.068 47.2011 355.156C47.2301 355.237 50.1797 363.329 54.4749 365.43C54.6153 365.499 54.7283 365.614 54.7953 365.755C54.8624 365.897 54.8796 366.057 54.8441 366.209C54.8086 366.362 54.7226 366.498 54.6001 366.595C54.4775 366.692 54.3257 366.745 54.1693 366.745V366.745Z" fill="white"/>
<path d="M54.0917 372.276C53.9311 372.276 53.7756 372.22 53.6517 372.117C53.5279 372.015 53.4436 371.872 53.4132 371.714C53.3827 371.556 53.4081 371.393 53.485 371.252C53.5619 371.11 53.6854 371 53.8345 370.94C61.909 367.699 66.9426 358.058 66.9924 357.964C67.0766 357.801 67.2221 357.678 67.3968 357.622C67.5716 357.566 67.7614 357.582 67.9245 357.666C68.0875 357.75 68.2104 357.896 68.2661 358.071C68.3219 358.246 68.3059 358.436 68.2218 358.6C68.0074 359.015 62.8977 368.795 54.3489 372.226C54.267 372.259 54.1798 372.275 54.0917 372.276V372.276Z" fill="white"/>
<path d="M336.374 297.76C336.374 297.76 330.327 287.964 329.737 277.298C329.146 266.632 331.489 262.208 334.696 260.936C337.902 259.664 338.144 263.579 339.8 265.899C341.455 268.219 344.806 266.891 346.043 259.678C347.281 252.466 351.821 240.243 361.212 237.911C371.583 235.338 366.02 247.525 363.416 252.28C360.812 257.035 358.782 263.511 360.5 265.275C362.217 267.038 364.878 263.78 367.432 266.798C370.514 270.444 360.933 283.559 355.433 286.733L336.374 297.76Z" fill="#24BDC7"/>
<path d="M344.66 293.635H344.624C344.442 293.626 344.27 293.544 344.147 293.407C344.025 293.271 343.961 293.091 343.97 292.908C344.91 275.773 350.245 259.171 359.458 244.703C359.567 244.557 359.727 244.46 359.907 244.432C360.086 244.404 360.269 244.447 360.416 244.553C360.563 244.658 360.664 244.818 360.695 244.997C360.726 245.176 360.686 245.36 360.583 245.509C351.522 259.76 346.278 276.109 345.357 292.98C345.348 293.158 345.27 293.326 345.14 293.448C345.01 293.57 344.838 293.637 344.66 293.635V293.635Z" fill="white"/>
<path d="M345.45 285.456C345.333 285.456 345.218 285.426 345.116 285.37C341.244 283.223 339.097 276.852 339.009 276.582C338.954 276.408 338.969 276.22 339.052 276.058C339.135 275.896 339.278 275.773 339.45 275.715C339.623 275.658 339.811 275.671 339.974 275.751C340.137 275.832 340.262 275.974 340.321 276.146C340.342 276.207 342.386 282.274 345.785 284.158C345.919 284.232 346.024 284.349 346.084 284.49C346.145 284.631 346.157 284.788 346.118 284.936C346.08 285.085 345.994 285.216 345.873 285.31C345.752 285.404 345.603 285.455 345.45 285.456Z" fill="white"/>
<path d="M346.128 281.26C345.959 281.26 345.796 281.199 345.669 281.087C345.542 280.975 345.461 280.821 345.44 280.653C345.419 280.485 345.46 280.315 345.556 280.176C345.651 280.036 345.794 279.936 345.958 279.895C355.939 277.367 359.397 272.127 359.431 272.076C359.533 271.93 359.688 271.829 359.862 271.794C360.037 271.76 360.218 271.793 360.368 271.889C360.518 271.985 360.626 272.135 360.669 272.308C360.711 272.481 360.686 272.664 360.597 272.818C360.45 273.052 356.863 278.564 346.299 281.238C346.243 281.252 346.186 281.26 346.128 281.26V281.26Z" fill="white"/>
<path d="M185.95 276.223C185.95 276.223 172.689 272.985 171.999 248.113C171.254 221.267 175.248 189.949 159.609 187.401C143.97 184.854 135.194 204.062 135.395 226.384C135.571 245.983 143.45 288.508 185.948 296.843L185.95 276.223Z" fill="#2196F3"/>
<path opacity="0.2" d="M185.95 276.223C185.95 276.223 172.689 272.985 171.999 248.113C171.254 221.267 175.248 189.949 159.609 187.401C143.97 184.854 135.194 204.062 135.395 226.384C135.571 245.983 143.45 288.508 185.948 296.843L185.95 276.223Z" fill="black"/>
<path d="M185.948 294.286C185.907 294.286 185.866 294.282 185.825 294.275C181.095 293.414 176.596 291.578 172.612 288.882C168.629 286.185 165.249 282.689 162.687 278.614C145.507 252.941 150.919 205.018 152.696 196.646C152.734 196.466 152.842 196.309 152.996 196.209C153.15 196.109 153.337 196.074 153.517 196.112C153.696 196.15 153.853 196.258 153.953 196.413C154.053 196.567 154.088 196.754 154.05 196.934C152.292 205.212 146.924 252.571 163.836 277.842C166.296 281.761 169.543 285.124 173.37 287.718C177.197 290.313 181.521 292.081 186.067 292.912C186.237 292.943 186.389 293.036 186.494 293.174C186.599 293.311 186.648 293.483 186.633 293.655C186.617 293.828 186.538 293.988 186.411 294.105C186.283 294.221 186.117 294.286 185.944 294.286H185.948Z" fill="white"/>
<path d="M185.949 358.137C172.24 359.999 149.969 359.965 137.141 349.826C124.314 339.686 126.983 330.957 131.917 327.313C136.851 323.67 141.136 319.505 132.648 311.42C124.16 303.334 110.514 290.341 106.097 270.848C101.681 251.356 103.857 239.176 112.54 235.11C120.966 231.171 123.188 237.431 128.342 250.348C133.496 263.265 145.107 252.191 155.031 256.222C164.956 260.253 164.565 268.232 165.19 275.091C165.815 281.951 169.092 283.846 174.711 283.846C180.329 283.846 185.944 287.094 185.945 293.591L185.949 358.137Z" fill="#24BDC7"/>
<path d="M185.95 335.507C185.887 335.507 185.825 335.498 185.764 335.482C185.17 335.314 170.991 331.181 150.353 312.191C128.366 291.967 117.994 261.631 117.888 261.329C117.856 261.243 117.841 261.15 117.846 261.058C117.85 260.965 117.873 260.874 117.912 260.791C117.952 260.707 118.008 260.633 118.078 260.571C118.147 260.51 118.227 260.463 118.315 260.433C118.403 260.404 118.495 260.392 118.587 260.399C118.68 260.405 118.769 260.431 118.852 260.473C118.934 260.515 119.007 260.574 119.066 260.644C119.126 260.715 119.17 260.798 119.197 260.886C119.298 261.188 129.569 291.189 151.29 311.169C171.651 329.904 185.999 334.104 186.138 334.145C186.298 334.191 186.437 334.293 186.528 334.433C186.619 334.573 186.657 334.741 186.634 334.907C186.611 335.072 186.529 335.224 186.403 335.334C186.278 335.443 186.116 335.504 185.95 335.504V335.507Z" fill="white"/>
<path d="M156.096 317.027C155.957 317.027 155.821 316.985 155.706 316.906C155.591 316.828 155.503 316.716 155.452 316.586C151.014 305.163 150.009 280.743 149.968 279.71C149.964 279.619 149.978 279.528 150.01 279.442C150.041 279.357 150.089 279.278 150.15 279.212C150.212 279.145 150.286 279.091 150.369 279.052C150.451 279.014 150.541 278.993 150.631 278.989C150.813 278.99 150.987 279.059 151.12 279.182C151.253 279.305 151.335 279.474 151.349 279.656C151.36 279.905 152.386 304.877 156.742 316.086C156.783 316.191 156.798 316.305 156.785 316.416C156.773 316.528 156.733 316.636 156.67 316.729C156.606 316.822 156.521 316.898 156.422 316.951C156.322 317.003 156.212 317.031 156.099 317.031L156.096 317.027Z" fill="white"/>
<path d="M155.98 333.457C154.706 333.463 153.432 333.399 152.165 333.266C152.075 333.255 151.987 333.227 151.908 333.182C151.829 333.138 151.759 333.078 151.702 333.006C151.646 332.935 151.605 332.853 151.58 332.765C151.555 332.678 151.548 332.586 151.559 332.495C151.569 332.405 151.597 332.317 151.641 332.237C151.685 332.158 151.745 332.088 151.817 332.031C151.888 331.975 151.97 331.934 152.058 331.91C152.146 331.886 152.238 331.879 152.328 331.891C152.457 331.903 165.327 333.36 171.232 327.32C171.295 327.254 171.371 327.201 171.455 327.164C171.538 327.127 171.629 327.107 171.721 327.106C171.812 327.104 171.903 327.121 171.988 327.155C172.073 327.189 172.151 327.239 172.216 327.303C172.282 327.368 172.334 327.444 172.369 327.529C172.405 327.614 172.423 327.704 172.424 327.796C172.424 327.888 172.406 327.979 172.371 328.064C172.336 328.148 172.284 328.225 172.219 328.29C167.895 332.711 160.485 333.457 155.98 333.457Z" fill="white"/>
<path d="M199.579 376.674L329.598 301.478C329.887 301.379 330.137 301.193 330.314 300.944C330.491 300.696 330.587 300.398 330.587 300.093C330.587 299.788 330.491 299.49 330.314 299.242C330.137 298.993 329.887 298.807 329.598 298.708L317.567 291.736C316.825 291.359 316.005 291.162 315.172 291.162C314.34 291.162 313.519 291.359 312.777 291.736L182.719 366.933C182.429 367.031 182.177 367.217 181.999 367.465C181.821 367.714 181.725 368.012 181.725 368.318C181.725 368.624 181.821 368.923 181.999 369.171C182.177 369.42 182.429 369.606 182.719 369.704L194.78 376.679C195.524 377.056 196.346 377.252 197.18 377.251C198.014 377.25 198.836 377.053 199.579 376.674V376.674Z" fill="#E0E0E0"/>
<path d="M326.003 11.1855L208.782 78.9773C207.039 80.1158 205.588 81.6497 204.548 83.4548C203.507 85.2598 202.906 87.2851 202.794 89.3663V367.889C202.794 371.715 205.475 373.265 208.782 371.352L326.003 303.556C327.745 302.417 329.196 300.883 330.236 299.078C331.277 297.273 331.878 295.248 331.991 293.167V14.6485C331.996 10.8184 329.322 9.26699 326.003 11.1855Z" fill="#455A64"/>
<path d="M208.788 78.9717L326.003 11.1855C328.96 9.47611 331.41 10.54 331.897 13.5181C331.622 11.6457 330.955 9.85259 329.94 8.25682C328.924 6.66106 327.582 5.29874 326.003 4.25944L321.127 1.44056C319.271 0.497399 317.22 0.00585938 315.139 0.00585938C313.058 0.00585938 311.006 0.497399 309.15 1.44056L191.936 69.2254C190.167 70.332 188.709 71.8731 187.702 73.7024L204.555 83.4473C205.562 81.6189 207.019 80.0783 208.788 78.9717V78.9717Z" fill="#37474F"/>
<path d="M185.949 358.137C186.062 360.218 186.662 362.244 187.703 364.049C188.743 365.854 190.194 367.388 191.937 368.526L196.813 371.346C198.502 372.197 200.352 372.68 202.24 372.763C204.129 372.846 206.014 372.528 207.771 371.828C204.95 372.901 202.792 371.308 202.792 367.883V89.3608C202.865 87.2725 203.469 85.2375 204.547 83.4488L187.694 73.7039C186.616 75.4926 186.013 77.5277 185.941 79.6159L185.949 358.137Z" fill="#02468A"/>
<path d="M212.011 116.092L322.786 52.0268C324.771 50.8785 326.382 51.8093 326.382 54.1046V260.202C326.314 261.451 325.953 262.666 325.328 263.749C324.703 264.832 323.833 265.753 322.786 266.435L212.009 330.501C210.026 331.648 208.414 330.717 208.414 328.423V122.326C208.482 121.077 208.843 119.861 209.468 118.778C210.093 117.695 210.964 116.775 212.011 116.092V116.092Z" fill="white"/>
<path d="M267.398 55.6422C266.785 56.0426 266.275 56.5821 265.909 57.217C265.543 57.8519 265.331 58.5642 265.291 59.2963C265.291 60.6427 266.235 61.1871 267.398 60.5139C268.012 60.1139 268.522 59.5744 268.888 58.9395C269.254 58.3045 269.465 57.5919 269.505 56.8597C269.505 55.5119 268.563 54.9689 267.398 55.6422Z" fill="#37474F"/>
<path d="M267.401 308.364C264.98 309.945 262.965 312.076 261.52 314.584C260.075 317.091 259.24 319.904 259.083 322.795C259.083 328.107 262.807 330.261 267.401 327.604C269.822 326.023 271.837 323.893 273.281 321.386C274.726 318.878 275.56 316.065 275.716 313.175C275.716 307.862 271.994 305.708 267.401 308.364Z" fill="#37474F"/>
<path d="M247.502 77.081C246.276 77.8822 245.255 78.9615 244.523 80.2315C243.792 81.5015 243.369 82.9265 243.29 84.3907C243.29 87.0822 245.176 88.1723 247.503 86.8273C248.73 86.0264 249.75 84.9471 250.482 83.677C251.214 82.407 251.636 80.9819 251.715 79.5176C251.715 76.8261 249.829 75.736 247.502 77.081Z" fill="#37474F"/>
<path d="M257.803 76.1681C257.803 77.9619 259.144 78.6421 260.797 77.6918L288.513 61.6622C289.369 61.1254 290.086 60.3941 290.606 59.5276C291.126 58.6612 291.435 57.684 291.507 56.6755C291.507 54.8817 290.167 54.2016 288.512 55.1518L260.797 71.18C259.941 71.7173 259.225 72.4489 258.704 73.3155C258.184 74.1822 257.875 75.1595 257.803 76.1681Z" fill="#37474F"/>
<path d="M195.271 125.01C196.252 125.651 197.069 126.514 197.654 127.531C198.24 128.547 198.578 129.687 198.641 130.859C198.641 133.011 197.132 133.884 195.271 132.807C194.29 132.167 193.473 131.303 192.888 130.287C192.302 129.271 191.964 128.131 191.901 126.959C191.901 124.807 193.41 123.941 195.271 125.01Z" fill="#37474F"/>
<path d="M195.271 151.019C196.252 151.66 197.068 152.524 197.654 153.54C198.239 154.556 198.577 155.696 198.641 156.867C198.641 159.02 197.132 159.893 195.271 158.816C194.29 158.176 193.473 157.312 192.888 156.296C192.302 155.281 191.964 154.141 191.901 152.969C191.901 150.814 193.41 149.944 195.271 151.019Z" fill="#37474F"/>
<path d="M194.23 125.531C195.211 126.172 196.028 127.035 196.613 128.051C197.199 129.068 197.538 130.208 197.601 131.379C197.601 133.532 196.091 134.405 194.23 133.328C193.249 132.688 192.432 131.824 191.847 130.809C191.261 129.793 190.923 128.653 190.86 127.481C190.86 125.326 192.37 124.455 194.23 125.531Z" fill="#455A64"/>
<path d="M194.23 151.541C195.211 152.182 196.028 153.045 196.614 154.061C197.199 155.078 197.538 156.218 197.601 157.389C197.601 159.542 196.091 160.415 194.23 159.338C193.249 158.697 192.432 157.834 191.847 156.818C191.261 155.802 190.923 154.662 190.86 153.49C190.86 151.337 192.37 150.465 194.23 151.541Z" fill="#455A64"/>
<path d="M348.849 60.622C348.849 58.3267 347.241 57.3958 345.254 58.5442L331.995 66.2112L234.478 122.608C233.432 123.291 232.561 124.211 231.936 125.294C231.312 126.377 230.951 127.593 230.883 128.842V334.939C230.883 337.234 232.492 338.164 234.478 337.017L332.03 280.599L345.255 272.953C346.301 272.27 347.172 271.349 347.797 270.266C348.421 269.183 348.782 267.968 348.851 266.719L348.849 60.622Z" fill="white" stroke="#2196F3" stroke-miterlimit="10"/>
<path d="M232.875 338.203C232.427 338.207 231.985 338.091 231.595 337.869C231.121 337.551 230.741 337.111 230.495 336.596C230.249 336.08 230.146 335.508 230.197 334.939V128.842C230.261 127.47 230.652 126.135 231.337 124.946C232.023 123.757 232.982 122.75 234.135 122.008L331.652 65.6113L332.343 66.8109L234.827 123.208C233.888 123.832 233.106 124.666 232.543 125.643C231.98 126.621 231.65 127.715 231.58 128.842V334.939C231.487 335.266 231.505 335.614 231.633 335.929C231.76 336.244 231.988 336.507 232.282 336.677C232.576 336.846 232.917 336.913 233.253 336.866C233.589 336.819 233.899 336.661 234.135 336.417L331.687 280L332.378 281.199L234.827 337.615C234.239 337.979 233.566 338.182 232.875 338.203V338.203Z" fill="#2196F3" stroke="#2196F3" stroke-miterlimit="10"/>
<path d="M332.378 281.199L331.687 280.001L344.912 272.353C345.851 271.728 346.632 270.895 347.195 269.918C347.759 268.94 348.089 267.846 348.159 266.719V60.6219C348.252 60.2953 348.234 59.947 348.106 59.6322C347.979 59.3174 347.751 59.0541 347.457 58.8843C347.163 58.7145 346.822 58.6478 346.486 58.6949C346.15 58.7419 345.839 58.8999 345.604 59.1439L332.345 66.811L331.653 65.6114L344.912 57.9443C345.363 57.5805 345.912 57.3617 346.489 57.3167C347.066 57.2718 347.643 57.4029 348.144 57.6926C348.645 57.9824 349.047 58.4173 349.296 58.9402C349.546 59.463 349.631 60.0493 349.542 60.6219V266.719C349.477 268.09 349.086 269.426 348.401 270.614C347.716 271.803 346.757 272.81 345.604 273.551L332.378 281.199Z" fill="#2196F3" stroke="#2196F3" stroke-miterlimit="10"/>
<path d="M289.869 108.515C302.279 101.339 312.338 107.157 312.338 121.51C312.338 135.863 302.279 153.317 289.869 160.494C277.459 167.67 267.4 161.853 267.4 147.499C267.4 133.146 277.465 115.692 289.869 108.515Z" fill="#005F69"/>
<path d="M289.869 119.812C293.894 117.483 297.158 119.371 297.158 124.027C297.021 126.561 296.29 129.026 295.023 131.224C293.757 133.421 291.991 135.288 289.869 136.674C285.843 139.002 282.578 137.116 282.578 132.459C282.716 129.925 283.447 127.459 284.714 125.262C285.981 123.065 287.747 121.197 289.869 119.812Z" fill="#2196F3"/>
<path d="M304.076 144.641C304.076 136.991 298.714 133.89 292.101 137.715L287.966 140.106C281.353 143.931 275.99 153.234 275.99 160.884V162.943C279.813 164.214 284.626 163.526 289.869 160.494C295.614 156.947 300.473 152.131 304.076 146.416V144.641Z" fill="#2196F3"/>
<path opacity="0.7" d="M289.869 119.812C293.894 117.483 297.158 119.371 297.158 124.027C297.021 126.56 296.29 129.026 295.023 131.223C293.757 133.421 291.991 135.288 289.869 136.674C285.843 139.002 282.578 137.115 282.578 132.458C282.716 129.925 283.447 127.459 284.714 125.262C285.981 123.064 287.747 121.197 289.869 119.812Z" fill="white"/>
<path opacity="0.7" d="M304.076 144.641C304.076 136.991 298.714 133.889 292.101 137.715L287.966 140.106C281.353 143.931 275.99 153.234 275.99 160.884V162.943C279.813 164.214 284.626 163.526 289.869 160.493C295.614 156.946 300.473 152.131 304.076 146.416V144.641Z" fill="white"/>
<path d="M246.393 192.147L275.307 175.426C276.631 174.66 277.702 175.281 277.702 176.811V177.767C277.658 178.6 277.417 179.41 277.001 180.132C276.585 180.854 276.005 181.468 275.307 181.923L246.393 198.643C245.071 199.41 243.998 198.782 243.998 197.258V196.302C244.043 195.47 244.283 194.66 244.699 193.938C245.116 193.216 245.696 192.602 246.393 192.147V192.147Z" fill="#24BDC7"/>
<path opacity="0.1" d="M246.393 192.147L275.307 175.426C276.631 174.66 277.702 175.281 277.702 176.811V177.767C277.658 178.6 277.417 179.41 277.001 180.132C276.585 180.854 276.005 181.468 275.307 181.923L246.393 198.643C245.071 199.41 243.998 198.782 243.998 197.258V196.302C244.043 195.47 244.283 194.66 244.699 193.938C245.116 193.216 245.696 192.602 246.393 192.147V192.147Z" fill="black"/>
<path d="M245.197 212.331L332.677 161.739C333.338 161.357 333.874 161.665 333.874 162.431V172.656C333.852 173.072 333.732 173.477 333.523 173.838C333.315 174.199 333.025 174.506 332.677 174.733L245.197 225.327C244.536 225.708 243.999 225.399 243.999 224.634V214.408C244.022 213.992 244.142 213.587 244.35 213.226C244.558 212.865 244.848 212.558 245.197 212.331V212.331Z" fill="#FF9900"/>
<path d="M246.393 237.627L275.307 220.905C276.631 220.139 277.702 220.767 277.702 222.29V223.246C277.657 224.079 277.417 224.889 277.001 225.611C276.585 226.333 276.004 226.946 275.307 227.402L246.393 244.122C245.071 244.888 243.998 244.268 243.998 242.737V241.781C244.043 240.949 244.284 240.139 244.7 239.418C245.116 238.696 245.696 238.083 246.393 237.627V237.627Z" fill="#24BDC7"/>
<path opacity="0.1" d="M246.393 237.627L275.307 220.905C276.631 220.139 277.702 220.767 277.702 222.29V223.246C277.657 224.079 277.417 224.889 277.001 225.611C276.585 226.333 276.004 226.946 275.307 227.402L246.393 244.122C245.071 244.888 243.998 244.268 243.998 242.737V241.781C244.043 240.949 244.284 240.139 244.7 239.418C245.116 238.696 245.696 238.083 246.393 237.627V237.627Z" fill="black"/>
<path d="M245.197 257.811L332.677 207.219C333.338 206.837 333.874 207.146 333.874 207.912V218.135C333.852 218.551 333.732 218.956 333.523 219.317C333.315 219.678 333.025 219.985 332.677 220.213L245.197 270.804C244.536 271.187 243.999 270.878 243.999 270.112V259.888C244.022 259.472 244.143 259.067 244.351 258.706C244.559 258.345 244.849 258.039 245.197 257.811Z" fill="#24BDC7"/>
<path opacity="0.2" d="M245.197 257.811L332.677 207.219C333.338 206.837 333.874 207.146 333.874 207.912V218.135C333.852 218.551 333.732 218.956 333.523 219.317C333.315 219.678 333.025 219.985 332.677 220.213L245.197 270.804C244.536 271.187 243.999 270.878 243.999 270.112V259.888C244.022 259.472 244.143 259.067 244.351 258.706C244.559 258.345 244.849 258.039 245.197 257.811Z" fill="white"/>
<path d="M280.092 263.616L314.622 243.647C315.945 242.881 317.018 243.502 317.018 245.033V255.733C316.973 256.566 316.733 257.376 316.316 258.098C315.9 258.82 315.319 259.434 314.622 259.889L280.092 279.859C278.768 280.624 277.697 280.005 277.697 278.474V267.772C277.741 266.939 277.981 266.129 278.398 265.407C278.814 264.685 279.394 264.071 280.092 263.616V263.616Z" fill="#DF483C"/>
<path d="M164.629 143.846C166.829 150.072 169.27 156.093 171.86 162.114C174.48 168.237 177.488 174.186 180.863 179.926C181.318 180.661 181.791 181.396 182.283 182.131L182.645 182.68L183.137 183.36C183.471 183.788 183.787 184.16 184.065 184.523C185.235 185.83 186.474 187.073 187.778 188.245C190.256 190.544 192.781 192.629 195.333 194.685C200.457 198.761 205.691 202.577 211.112 206.197L214.351 202.167L200.707 188.683C198.452 186.44 196.215 184.179 194.126 181.917C193.096 180.791 192.094 179.637 191.268 178.576C191.063 178.316 190.887 178.055 190.729 177.832L190.534 177.516L190.265 177.032C189.903 176.39 189.523 175.766 189.17 175.105C186.33 169.754 183.824 163.938 181.41 158.038C178.997 152.138 176.677 146.191 174.449 140.291L164.629 143.846Z" fill="#E4897B"/>
<path d="M162.021 139.361C159.914 145.54 172.296 163.715 172.296 163.715L184.121 157.117C182.106 151.446 179.724 145.912 176.992 140.552C172.853 132.698 164.332 132.577 162.021 139.361Z" fill="#D0AEFF"/>
<path opacity="0.31" d="M161.844 140.133C164.499 138.858 167.553 139.928 170.773 145.028C173.994 150.128 176.732 158.643 177.029 161.072L172.286 163.705C172.286 163.705 160.861 146.917 161.844 140.133Z" fill="#407BFF"/>
<path d="M170.031 134.633C170.031 134.633 178.867 155.47 172.5 194.267H135.698C135.243 188.599 137.842 160.969 131.465 134.28C135.517 133.489 139.616 132.967 143.736 132.716C148.945 132.418 154.166 132.418 159.375 132.716C162.971 133.082 166.533 133.723 170.031 134.633Z" fill="#D0AEFF"/>
<path d="M122.666 359.57L128.115 364.465L138.501 353.624L133.043 348.729L122.666 359.57Z" fill="#E4897B"/>
<path d="M141.351 369.751H148.228L149.119 353.782H142.242L141.351 369.751Z" fill="#E4897B"/>
<path d="M138.491 353.624L133.145 359.217L127.688 354.312L133.034 348.729L138.491 353.624Z" fill="#CE6F64"/>
<path d="M142.242 353.782H149.119L148.655 362.018H141.778L142.242 353.782Z" fill="#CE6F64"/>
<path d="M172.5 194.267C172.5 194.267 179.749 244.575 182.218 271.954C184.204 293.925 136.821 359.431 136.821 359.431L127.66 350.786C127.66 350.786 162.262 292.055 159.598 267.599C157.018 243.915 148.275 194.239 148.275 194.239L172.5 194.267Z" fill="#4D4F5C"/>
<path opacity="0.2" d="M159.598 267.626C158.271 255.426 155.301 236.311 152.748 220.659C154.085 218.034 157.835 212.72 157.835 212.72C161.195 224.362 168.5 268.25 158.076 327.52C147.217 345.071 136.821 359.459 136.821 359.459L135.401 336.826C145.434 317.898 161.445 284.535 159.598 267.626Z" fill="black"/>
<path d="M159.413 194.267C159.413 194.267 160.062 246.986 158.949 266.742C157.733 288.37 151.607 360.036 151.607 360.036H139.002C139.002 360.036 139.383 290.119 138.64 268.715C137.814 245.45 135.679 194.267 135.679 194.267H159.413Z" fill="#4D4F5C"/>
<path d="M148.59 368.96H140.858C140.729 368.955 140.604 369.001 140.508 369.088C140.413 369.175 140.355 369.296 140.348 369.426L139.967 375.558C139.966 375.718 139.996 375.877 140.056 376.026C140.116 376.174 140.205 376.309 140.317 376.423C140.429 376.537 140.562 376.628 140.709 376.69C140.856 376.753 141.014 376.786 141.174 376.787C143.866 376.74 145.156 376.582 148.553 376.582C150.641 376.582 159.533 376.805 162.42 376.805C165.307 376.805 165.204 373.939 164.007 373.679C158.522 372.515 151.718 370.887 149.769 369.379C149.433 369.113 149.018 368.966 148.59 368.96Z" fill="#02468A"/>
<path d="M129.618 362.502L122.991 358.025C122.883 357.939 122.749 357.893 122.611 357.893C122.473 357.893 122.338 357.939 122.23 358.025L117.162 363.153C117.063 363.266 116.991 363.399 116.949 363.543C116.907 363.687 116.897 363.839 116.92 363.987C116.943 364.135 116.998 364.277 117.082 364.401C117.165 364.526 117.275 364.63 117.404 364.707C121.636 367.974 124.69 370.44 127.103 373.157C129.888 376.331 131.391 376.787 137.888 376.787C140.896 376.787 142.594 374.246 141.369 373.855C130.547 370.421 133.443 368.923 130.807 363.888C130.532 363.334 130.123 362.858 129.618 362.502Z" fill="#02468A"/>
<path d="M212.792 201.302L219.967 201.553L218.463 207.193C218.463 207.193 210.964 207.863 210.295 205.592L212.792 201.302Z" fill="#E4897B"/>
<path d="M227.708 204.912L222.677 207.853L218.463 207.192L219.967 201.553L227.708 204.912Z" fill="#E4897B"/>
<path opacity="0.31" d="M139.689 140.868C140.45 145.261 139.438 155.758 135.679 167.912C135.385 157.499 134.177 147.132 132.069 136.932V136.876C134.482 136.634 138.956 136.746 139.689 140.868Z" fill="#407BFF"/>
<path d="M144.673 115.053C145.833 120.097 147.142 129.347 143.745 132.735C143.745 132.735 145.211 136.913 154.567 136.913C164.852 136.913 159.385 132.735 159.385 132.735C153.723 131.395 153.723 127.216 154.567 123.298L144.673 115.053Z" fill="#E4897B"/>
<path d="M154.828 136.895L157.612 139.863L156.248 142.729L154.029 142.832L152.136 140.096L154.828 136.895Z" fill="#004C54"/>
<path d="M148.702 118.413L154.558 123.27C154.347 124.188 154.217 125.122 154.169 126.062C152.015 125.755 148.989 123.391 148.683 121.139C148.519 120.237 148.525 119.312 148.702 118.413Z" fill="#CE6F64"/>
<path d="M156.879 97.9488C160.396 99.1493 163.209 108.502 159.106 110.977C155.004 113.453 150.196 95.6688 156.879 97.9488Z" fill="#02468A"/>
<path d="M142.474 109.767C144.571 116.282 145.462 120.218 149.695 122.889C151.06 123.769 152.64 124.258 154.262 124.302C155.885 124.347 157.488 123.947 158.9 123.144C160.312 122.34 161.478 121.166 162.271 119.746C163.065 118.327 163.457 116.717 163.404 115.09C163.32 108.827 159.905 99.1863 152.711 97.9765C151.161 97.6765 149.559 97.7901 148.067 98.3059C146.574 98.8217 145.242 99.7217 144.206 100.916C143.169 102.11 142.463 103.556 142.159 105.109C141.855 106.663 141.964 108.269 142.474 109.767Z" fill="#E4897B"/>
<path d="M137.276 98.8793C139.373 103.96 134.491 99.7168 135.753 105.747C136.57 109.674 143.643 119.083 146.372 118.227C149.101 117.37 149.073 110.698 145.592 105.98C143.587 103.272 147.922 100.201 157.658 100.526C167.395 100.852 173.28 95.3616 160.341 91.332C160.341 91.332 165.112 94.1239 162.281 95.0545C158.271 96.5527 133.071 88.6984 137.276 98.8793Z" fill="#02468A"/>
<path d="M139.132 101.206C139.234 101.206 136.951 100.638 135.735 96.5527C135.735 96.6179 136.134 102.639 139.132 101.206Z" fill="#02468A"/>
<path d="M157.352 92.2349C163.339 94.0961 160.861 96.1899 158.382 96.7111L152.702 94.4776C161.334 95.6223 157.352 92.2349 157.352 92.2349Z" fill="#02468A"/>
<path d="M141.323 117.724C142.568 118.937 144.228 119.626 145.964 119.651C148.256 119.651 148.748 117.473 147.514 115.649C146.418 114.011 143.912 112.038 141.889 112.922C139.866 113.806 139.801 116.226 141.323 117.724Z" fill="#E4897B"/>
<path d="M153.045 109.404C153.185 109.944 153.584 110.335 153.974 110.242C154.363 110.149 154.503 109.656 154.363 109.116C154.224 108.576 153.825 108.185 153.435 108.288C153.045 108.39 152.906 108.865 153.045 109.404Z" fill="#02468A"/>
<path d="M159.171 108.055C159.311 108.595 159.71 108.986 160.099 108.893C160.489 108.8 160.629 108.316 160.489 107.776C160.35 107.236 159.96 106.845 159.561 106.938C159.162 107.031 159.06 107.515 159.171 108.055Z" fill="#02468A"/>
<path d="M157.297 108.753C158.352 110.26 159.6 111.621 161.009 112.801C160.699 113.146 160.318 113.42 159.891 113.601C159.465 113.783 159.004 113.869 158.54 113.853L157.297 108.753Z" fill="#DE5753"/>
<path d="M156.276 115.816C156.66 115.816 157.043 115.772 157.417 115.686C157.458 115.675 157.494 115.649 157.516 115.612C157.539 115.576 157.546 115.533 157.538 115.491C157.527 115.449 157.501 115.414 157.464 115.391C157.428 115.369 157.385 115.361 157.343 115.37C156.659 115.522 155.95 115.518 155.269 115.357C154.587 115.196 153.951 114.882 153.407 114.439C153.376 114.409 153.335 114.392 153.291 114.392C153.248 114.392 153.207 114.409 153.175 114.439C153.145 114.47 153.129 114.512 153.129 114.555C153.129 114.599 153.145 114.64 153.175 114.672C154.037 115.416 155.138 115.822 156.276 115.816Z" fill="#02468A"/>
<path d="M150.614 107.85C150.677 107.851 150.739 107.833 150.792 107.799C150.845 107.764 150.886 107.714 150.911 107.655C151.063 107.282 151.303 106.951 151.61 106.69C151.917 106.429 152.282 106.246 152.674 106.157C152.717 106.151 152.758 106.137 152.796 106.115C152.833 106.093 152.865 106.064 152.891 106.029C152.917 105.995 152.936 105.955 152.947 105.913C152.957 105.871 152.959 105.827 152.953 105.784C152.939 105.699 152.892 105.622 152.823 105.57C152.754 105.518 152.667 105.495 152.581 105.505C152.081 105.607 151.614 105.83 151.219 106.155C150.824 106.479 150.515 106.895 150.317 107.366C150.298 107.405 150.288 107.448 150.287 107.491C150.285 107.534 150.293 107.576 150.308 107.617C150.324 107.657 150.347 107.693 150.378 107.724C150.408 107.754 150.444 107.778 150.484 107.795C150.522 107.822 150.567 107.842 150.614 107.85Z" fill="#02468A"/>
<path d="M161.241 105.384C161.316 105.384 161.388 105.357 161.445 105.31C161.512 105.254 161.554 105.174 161.563 105.087C161.571 105 161.546 104.913 161.492 104.845C161.165 104.437 160.748 104.11 160.275 103.888C159.802 103.667 159.285 103.558 158.763 103.57C158.72 103.573 158.678 103.585 158.64 103.605C158.602 103.625 158.568 103.652 158.541 103.684C158.513 103.717 158.492 103.755 158.48 103.796C158.467 103.837 158.462 103.88 158.466 103.923C158.468 103.967 158.479 104.009 158.498 104.048C158.518 104.087 158.545 104.121 158.578 104.149C158.611 104.177 158.649 104.198 158.691 104.21C158.732 104.222 158.776 104.226 158.818 104.221C159.236 104.217 159.649 104.308 160.025 104.489C160.402 104.67 160.732 104.935 160.99 105.263C161.02 105.301 161.058 105.332 161.102 105.353C161.145 105.374 161.193 105.385 161.241 105.384Z" fill="#02468A"/>
<path d="M129.683 139.035C128.959 140.161 128.356 141.157 127.743 142.236C127.131 143.316 126.546 144.358 125.971 145.437C124.838 147.587 123.771 149.783 122.796 152.026C120.752 156.618 119.217 161.42 118.22 166.348L118.128 166.823L118.081 167.055L118.016 167.446C117.937 167.967 117.897 168.493 117.896 169.019C117.905 169.901 117.998 170.78 118.174 171.643C118.488 173.068 118.942 174.459 119.529 175.794C120.571 178.134 121.813 180.379 123.242 182.504C125.942 186.544 129.012 190.323 132.412 193.792L136.45 190.544C134.204 186.617 131.967 182.541 130.092 178.548C129.17 176.639 128.382 174.668 127.734 172.648C127.469 171.806 127.289 170.94 127.196 170.061C127.164 169.774 127.164 169.483 127.196 169.196C127.196 169.112 127.196 169.038 127.252 169.028C127.307 169.019 127.252 169.028 127.252 168.982L127.307 168.796L127.419 168.414C128.005 166.362 128.702 164.342 129.507 162.365C130.324 160.346 131.233 158.336 132.189 156.335C133.145 154.334 134.176 152.361 135.234 150.388C135.754 149.402 136.301 148.425 136.849 147.457L138.482 144.665L129.683 139.035Z" fill="#E4897B"/>
<path d="M151.022 370.151C151.485 370.198 151.949 370.068 152.321 369.788C152.426 369.671 152.5 369.53 152.536 369.377C152.571 369.224 152.568 369.065 152.525 368.913C152.505 368.812 152.459 368.717 152.393 368.637C152.326 368.557 152.241 368.496 152.145 368.457C151.3 368.122 149.36 369.462 149.138 369.611C149.11 369.628 149.089 369.654 149.077 369.684C149.065 369.714 149.064 369.748 149.073 369.779C149.077 369.81 149.092 369.839 149.113 369.863C149.135 369.886 149.163 369.902 149.193 369.909C149.793 370.054 150.406 370.135 151.022 370.151ZM151.829 368.727C151.894 368.717 151.96 368.717 152.024 368.727C152.072 368.744 152.113 368.774 152.144 368.814C152.175 368.853 152.195 368.901 152.201 368.951C152.234 369.048 152.242 369.153 152.222 369.254C152.203 369.355 152.157 369.45 152.089 369.528C151.774 369.844 150.873 369.881 149.639 369.639C150.295 369.183 151.043 368.875 151.829 368.737V368.727Z" fill="white"/>
<path d="M149.231 369.919H149.314C150.001 369.509 151.022 368.058 150.864 367.313C150.837 367.177 150.764 367.053 150.658 366.964C150.552 366.874 150.418 366.823 150.28 366.82C150.157 366.804 150.033 366.816 149.915 366.854C149.798 366.893 149.691 366.958 149.602 367.043C148.906 367.723 149.064 369.705 149.064 369.788C149.067 369.816 149.077 369.843 149.093 369.865C149.11 369.888 149.131 369.907 149.156 369.919H149.231ZM150.159 367.127H150.233C150.465 367.127 150.521 367.267 150.539 367.36C150.642 367.853 149.964 368.942 149.37 369.444C149.284 368.689 149.44 367.927 149.815 367.267C149.862 367.221 149.917 367.185 149.978 367.161C150.038 367.137 150.103 367.126 150.168 367.127H150.159Z" fill="white"/>
<path d="M134.073 366.243C134.245 366.248 134.416 366.216 134.575 366.15C134.697 366.1 134.806 366.022 134.891 365.922C134.977 365.821 135.037 365.701 135.067 365.573C135.09 365.494 135.093 365.411 135.075 365.331C135.058 365.251 135.019 365.177 134.965 365.117C134.343 364.363 131.085 364.586 130.713 364.614C130.679 364.615 130.646 364.628 130.619 364.649C130.592 364.671 130.573 364.701 130.565 364.735C130.558 364.769 130.561 364.804 130.574 364.835C130.588 364.867 130.61 364.894 130.639 364.912C131.676 365.597 132.847 366.051 134.073 366.243ZM132.106 364.884C133.247 364.884 134.445 364.996 134.714 365.321C134.73 365.346 134.738 365.375 134.738 365.405C134.738 365.435 134.73 365.464 134.714 365.489C134.698 365.569 134.663 365.645 134.611 365.708C134.559 365.771 134.493 365.821 134.417 365.852C133.897 366.066 132.728 365.712 131.252 364.921L132.106 364.884Z" fill="white"/>
<path d="M130.723 364.94C131.651 364.94 133.739 364.223 133.897 363.479C133.897 363.293 133.897 363.032 133.452 362.818C131.855 362.064 130.621 364.596 130.565 364.679C130.554 364.706 130.548 364.734 130.548 364.763C130.548 364.792 130.554 364.82 130.565 364.847C130.58 364.875 130.603 364.899 130.631 364.915C130.659 364.932 130.691 364.94 130.723 364.94ZM132.867 363.013C133.024 363.012 133.18 363.047 133.322 363.116C133.517 363.209 133.609 363.311 133.591 363.404C133.498 363.842 131.994 364.456 131.011 364.586C131.308 364.084 132.022 363.013 132.867 363.013Z" fill="white"/>
<path d="M134.612 189.036L141.425 187.836L137.907 195.793C137.907 195.793 131.66 195.793 131.939 192.517L134.612 189.036Z" fill="#E4897B"/>
<path d="M146.576 191.838L143.355 198.259L137.944 195.793L141.462 187.836L146.576 191.838Z" fill="#E4897B"/>
<path d="M127.103 350.292L137.378 359.989L140.691 356.425L128.931 345.686L127.103 350.292Z" fill="#407BFF"/>
<path opacity="0.6" d="M127.103 350.292L137.378 359.989L140.691 356.425L128.931 345.686L127.103 350.292Z" fill="#004C54"/>
<path d="M138.501 360.036H152.117L152.869 355.234L137.842 355.987L138.501 360.036Z" fill="#407BFF"/>
<path opacity="0.6" d="M138.501 360.036H152.117L152.869 355.234L137.842 355.987L138.501 360.036Z" fill="#004C54"/>
<path d="M131.465 134.279C124.968 135.21 118.313 157.842 118.313 157.842L132.236 165.585C132.236 165.585 137.888 154.827 140.589 146.843C143.42 138.477 138.417 133.256 131.465 134.279Z" fill="#D0AEFF"/>
<path opacity="0.2" d="M154.946 136.555L157.648 139.658L156.324 142.655L154.171 142.762L152.334 139.901L154.946 136.555Z" fill="black"/>
<path d="M156.006 142.218C156.006 142.218 161.287 164.152 161.492 168.712C161.779 174.984 159.162 185.696 159.162 185.696C159.162 185.696 155.449 176.79 154.688 168.517C153.927 160.244 154.493 146.862 154.15 142.218H156.006Z" fill="#005F69"/>
<path opacity="0.2" d="M155.961 142.762C155.961 142.762 161.243 164.696 161.447 169.256C161.735 175.528 159.117 186.24 159.117 186.24C159.117 186.24 155.405 177.334 154.643 169.061C153.882 160.788 154.449 147.405 154.105 142.762H155.961Z" fill="black"/>
<path d="M154.828 136.895C153.77 138.611 153.157 140.566 153.046 142.581C153.046 142.581 141.462 138.486 142.01 132.483C142.01 132.483 143.652 131.506 144.692 130.715C144.692 130.715 145.082 134.494 154.828 136.895Z" fill="#407BFF"/>
<path opacity="0.6" d="M154.828 136.895C153.77 138.611 153.157 140.566 153.046 142.581C153.046 142.581 141.462 138.486 142.01 132.483C142.01 132.483 143.652 131.506 144.692 130.715C144.692 130.715 145.082 134.494 154.828 136.895Z" fill="white"/>
<path d="M154.828 136.895C155.892 138.52 156.659 140.322 157.092 142.218C157.092 142.218 162.337 138.663 160.759 132.735C159.798 132.347 158.808 132.035 157.798 131.804C157.798 131.804 158.485 135.638 154.828 136.895Z" fill="#407BFF"/>
<path opacity="0.6" d="M154.828 136.895C155.892 138.52 156.659 140.322 157.092 142.218C157.092 142.218 162.337 138.663 160.759 132.735C159.798 132.347 158.808 132.035 157.798 131.804C157.798 131.804 158.485 135.638 154.828 136.895Z" fill="white"/>
</g>
<defs>
<clipPath id="clip0_337_2918">
<rect width="488" height="454" fill="white"/>
</clipPath>
</defs>
</svg>
