<svg width="20" height="20" viewBox="0 0 20 20" fill="none" xmlns="http://www.w3.org/2000/svg">
<path d="M9.95 7.90012e-10C7.47094 -3.11433e-05 5.08025 0.920768 3.24172 2.58376C1.40319 4.24675 0.247906 6.53337 0 9H6.95V7.6C6.94988 7.44168 6.99673 7.28689 7.08462 7.15521C7.17252 7.02354 7.29751 6.9209 7.44377 6.8603C7.59003 6.7997 7.75098 6.78386 7.90625 6.81478C8.06151 6.8457 8.20412 6.92199 8.316 7.034L10.716 9.434C10.8659 9.58401 10.9501 9.78742 10.9501 9.9995C10.9501 10.2116 10.8659 10.415 10.716 10.565L8.316 12.965C8.20418 13.0769 8.06166 13.1532 7.90649 13.1842C7.75132 13.2151 7.59045 13.1994 7.44423 13.1389C7.29801 13.0784 7.17301 12.9759 7.08504 12.8444C6.99707 12.7129 6.95007 12.5582 6.95 12.4V11H0C0.193517 12.9255 0.941558 14.7534 2.1534 16.2622C3.36524 17.7709 4.98882 18.8957 6.82722 19.4999C8.66563 20.1042 10.6399 20.1621 12.5105 19.6666C14.3812 19.1711 16.0679 18.1434 17.366 16.7083C18.6642 15.2731 19.5181 13.4921 19.8241 11.5813C20.1301 9.67046 19.8751 7.71189 19.09 5.94312C18.3049 4.17435 17.0235 2.67137 15.4011 1.61645C13.7788 0.561543 11.8852 2.43122e-05 9.95 7.90012e-10V7.90012e-10Z" fill="white"/>
</svg>
