<svg width="21" height="18" viewBox="0 0 21 18" fill="none" xmlns="http://www.w3.org/2000/svg">
<path d="M14.4375 1.28571C14.4375 0.944722 14.5758 0.617695 14.8219 0.376577C15.0681 0.135459 15.4019 0 15.75 0H18.375C18.7231 0 19.0569 0.135459 19.3031 0.376577C19.5492 0.617695 19.6875 0.944722 19.6875 1.28571V16.7143H20.3438C20.5178 16.7143 20.6847 16.782 20.8078 16.9026C20.9309 17.0231 21 17.1866 21 17.3571C21 17.5276 20.9309 17.6912 20.8078 17.8117C20.6847 17.9323 20.5178 18 20.3438 18H0.65625C0.482202 18 0.315282 17.9323 0.192211 17.8117C0.0691404 17.6912 0 17.5276 0 17.3571C0 17.1866 0.0691404 17.0231 0.192211 16.9026C0.315282 16.782 0.482202 16.7143 0.65625 16.7143H1.3125V12.8571C1.3125 12.5162 1.45078 12.1891 1.69692 11.948C1.94306 11.7069 2.2769 11.5714 2.625 11.5714H5.25C5.5981 11.5714 5.93194 11.7069 6.17808 11.948C6.42422 12.1891 6.5625 12.5162 6.5625 12.8571V16.7143H7.875V7.71429C7.875 7.37329 8.01328 7.04627 8.25942 6.80515C8.50556 6.56403 8.8394 6.42857 9.1875 6.42857H11.8125C12.1606 6.42857 12.4944 6.56403 12.7406 6.80515C12.9867 7.04627 13.125 7.37329 13.125 7.71429V16.7143H14.4375V1.28571ZM15.75 16.7143H18.375V1.28571H15.75V16.7143ZM11.8125 16.7143V7.71429H9.1875V16.7143H11.8125ZM5.25 16.7143V12.8571H2.625V16.7143H5.25Z" fill="#A5AAB5"/>
</svg>
