<svg width="23" height="29" viewBox="0 0 23 29" fill="none" xmlns="http://www.w3.org/2000/svg">
<path d="M11.219 1.52395e-05C10.662 1.52395e-05 10.1279 0.221265 9.73408 0.615091C9.34025 1.00892 9.119 1.54306 9.119 2.10002V3.07502C7.31152 3.53916 5.70972 4.59122 4.56574 6.06559C3.42177 7.53995 2.8006 9.35289 2.8 11.219V19.633L0 22.438V23.838H22.438V22.438L19.638 19.638V11.219C19.637 9.35485 19.0166 7.54386 17.8742 6.07075C16.7318 4.59764 15.1323 3.54595 13.327 3.08102V2.10002C13.327 1.82356 13.2724 1.54983 13.1664 1.29453C13.0604 1.03922 12.905 0.807363 12.7091 0.612255C12.5132 0.417147 12.2808 0.26263 12.0251 0.157566C11.7694 0.052503 11.4954 -0.0010379 11.219 1.52395e-05ZM8.419 25.243C8.419 25.9869 8.71453 26.7004 9.24057 27.2264C9.7666 27.7525 10.4801 28.048 11.224 28.048C11.9679 28.048 12.6814 27.7525 13.2074 27.2264C13.7335 26.7004 14.029 25.9869 14.029 25.243H8.419Z" fill="#8E8686"/>
</svg>
