<svg width="30" height="30" viewBox="0 0 30 30" fill="none" xmlns="http://www.w3.org/2000/svg">
<path d="M26.25 6.98742H26.2502C26.7174 6.98783 27.1655 7.17363 27.4959 7.50405C27.8263 7.83446 28.0121 8.28247 28.0125 8.74974V8.74992V21.2499V21.2501C28.0121 21.7174 27.8263 22.1654 27.4959 22.4958C27.1655 22.8262 26.7174 23.012 26.2502 23.0124H26.25H20.5125V23.7499C20.5125 23.8858 20.4585 24.0162 20.3624 24.1123C20.2663 24.2084 20.1359 24.2624 20 24.2624C19.8641 24.2624 19.7337 24.2084 19.6376 24.1123C19.5415 24.0162 19.4875 23.8858 19.4875 23.7499V21.2499C19.4875 21.114 19.5415 20.9836 19.6376 20.8875C19.7337 20.7914 19.8641 20.7374 20 20.7374C20.1359 20.7374 20.2663 20.7914 20.3624 20.8875C20.4585 20.9836 20.5125 21.114 20.5125 21.2499V21.9874L26.2497 21.9874L26.25 21.9874M26.25 6.98742L26.9125 21.9124C26.7368 22.0882 26.4985 22.1871 26.25 22.1874V21.9874M26.25 6.98742H23.7372M26.25 6.98742H23.7372M26.25 21.9874C26.4455 21.9871 26.6329 21.9092 26.7711 21.771C26.9094 21.6327 26.9872 21.4452 26.9875 21.2496M26.25 21.9874L26.9875 21.2496M26.9875 21.2496V21.2499H27.1875L26.9875 21.2496ZM26.9875 21.2496V8.75013C26.9873 8.55454 26.9095 8.36702 26.7712 8.22872C26.6329 8.09046 26.4455 8.01268 26.25 8.01242C26.2499 8.01242 26.2499 8.01242 26.2498 8.01242L23.7372 8.01242L24.6288 8.90405C24.6771 8.95105 24.7157 9.00711 24.7423 9.06904C24.7692 9.13157 24.7833 9.19882 24.7839 9.26687C24.7845 9.33491 24.7715 9.4024 24.7457 9.46539C24.72 9.52837 24.6819 9.5856 24.6338 9.63371L24.5007 9.50061L24.6338 9.63372C24.5857 9.68183 24.5285 9.71989 24.4655 9.74566C24.4025 9.77143 24.335 9.78439 24.2669 9.7838C24.1989 9.78321 24.1316 9.76907 24.0691 9.74221L24.1481 9.55845M26.9875 21.2496L24.1481 9.55845M23.7372 6.98742L24.6288 6.09579C24.6771 6.0488 24.7157 5.99273 24.7423 5.9308C24.7692 5.86827 24.7833 5.80102 24.7839 5.73297C24.7845 5.66492 24.7715 5.59744 24.7457 5.53445C24.72 5.47146 24.6819 5.41424 24.6338 5.36612C24.5857 5.318 24.5285 5.27995 24.4655 5.25418C24.4025 5.22841 24.335 5.21544 24.2669 5.21603C24.1989 5.21663 24.1316 5.23077 24.0691 5.25762C24.0072 5.28423 23.9511 5.32278 23.9041 5.37106L22.1376 7.13748C22.1376 7.13748 22.1376 7.13749 22.1376 7.13749C22.09 7.18508 22.0522 7.24158 22.0265 7.30376C22.0007 7.36595 21.9874 7.43261 21.9874 7.49992C21.9874 7.56723 22.0007 7.63388 22.0265 7.69607C22.0522 7.75826 22.09 7.81476 22.1376 7.86234C22.1376 7.86235 22.1376 7.86235 22.1376 7.86236L23.9042 9.62879C23.9511 9.67707 24.0072 9.71561 24.0691 9.74221L24.1481 9.55845M23.7372 6.98742L24.1481 9.55845M24.1481 9.55845C24.1862 9.57483 24.2272 9.58345 24.2687 9.58381C24.3102 9.58417 24.3513 9.57626 24.3897 9.56055C24.4281 9.54484 24.463 9.52163 24.4924 9.49229C24.5217 9.46295 24.5449 9.42806 24.5606 9.38965C24.5763 9.35125 24.5843 9.3101 24.5839 9.26861C24.5835 9.22711 24.5749 9.18611 24.5585 9.14798C24.5422 9.10985 24.5183 9.07537 24.4885 9.04654L23.4544 8.01242L24.1481 9.55845ZM26.9126 8.0873C27.0884 8.26306 27.1872 8.50136 27.1875 8.74992L23.5372 7.81242H26.25C26.4986 7.81268 26.7369 7.91154 26.9126 8.0873Z" fill="#A5AAB5" stroke="#A5AAB5" stroke-width="0.4"/>
<path d="M16.8418 24.3418C16.9988 24.1848 17.0871 23.972 17.0875 23.75C17.0875 23.7499 17.0875 23.7499 17.0875 23.7498M16.8418 24.3418L17.1875 23.75L17.0875 23.7498M16.8418 24.3418C16.6848 24.4988 16.4719 24.5872 16.2499 24.5875H3.75015C3.52809 24.5872 3.31522 24.4988 3.1582 24.3418C3.0012 24.1848 2.91285 23.972 2.9125 23.7499L16.8418 24.3418ZM17.0875 23.7498V21.2501M17.0875 23.7498V21.2501M17.0875 21.2501L17.0875 21.25L17.0875 21.2501ZM16.2501 19.5875H16.25L3.75 19.5875L3.74991 19.5875C3.30913 19.5879 2.88652 19.7632 2.57484 20.0748C2.26316 20.3865 2.08789 20.8091 2.0875 21.2499V21.25L2.0875 23.75L2.0875 23.7501C2.08789 24.1909 2.26316 24.6135 2.57484 24.9252C2.88652 25.2368 3.30913 25.4121 3.74991 25.4125H3.75H16.25H16.2501C16.6909 25.4121 17.1135 25.2368 17.4252 24.9252C17.7368 24.6135 17.9121 24.1909 17.9125 23.7501V23.75V21.25V21.2499C17.9121 20.8091 17.7368 20.3865 17.4252 20.0748C17.1135 19.7632 16.6909 19.5879 16.2501 19.5875Z" fill="#A5AAB5" stroke="#A5AAB5" stroke-width="0.2"/>
<path d="M16.8418 16.8418C16.9988 16.6848 17.0871 16.472 17.0875 16.25C17.0875 16.25 17.0875 16.2499 17.0875 16.2499M16.8418 16.8418L17.1875 16.25L17.0875 16.2499M16.8418 16.8418C16.6848 16.9988 16.4719 17.0872 16.2499 17.0875H3.75015C3.52809 17.0872 3.31522 16.9988 3.1582 16.8418C3.0012 16.6848 2.91285 16.472 2.9125 16.2499M16.8418 16.8418L17.0875 13.7501M17.0875 16.2499L17.0875 13.7501M17.0875 16.2499L17.0875 13.7501M17.0875 13.7501C17.0873 13.528 16.9989 13.3151 16.8419 13.1581C16.6849 13.0011 16.472 12.9128 16.2499 12.9125H16.25V12.8125L16.2499 12.9125H3.75011C3.52803 12.9127 3.31512 13.0011 3.15809 13.1581C3.00107 13.3151 2.91275 13.528 2.9125 13.7501C2.9125 13.7501 2.9125 13.7501 2.9125 13.7501L2.9125 16.2499M2.9125 16.2499V16.25H2.8125M2.9125 16.2499C2.9125 16.2499 2.9125 16.2499 2.9125 16.2499L2.8125 16.25M2.8125 16.25V13.75C2.81276 13.5014 2.91162 13.2631 3.08738 13.0874C3.26314 12.9116 3.50144 12.8128 3.75 12.8125L2.8125 16.25ZM16.2501 12.0875H16.25L3.75 12.0875L3.74991 12.0875C3.30913 12.0879 2.88652 12.2632 2.57484 12.5748C2.26316 12.8865 2.08789 13.3091 2.0875 13.7499V13.75L2.0875 16.25L2.0875 16.2501C2.08789 16.6909 2.26316 17.1135 2.57484 17.4252C2.88652 17.7368 3.30913 17.9121 3.74991 17.9125H3.75H16.25H16.2501C16.6909 17.9121 17.1135 17.7368 17.4252 17.4252C17.7368 17.1135 17.9121 16.6909 17.9125 16.2501V16.25V13.75V13.7499C17.9121 13.3091 17.7368 12.8865 17.4252 12.5748C17.1135 12.2632 16.6909 12.0879 16.2501 12.0875Z" fill="#A5AAB5" stroke="#A5AAB5" stroke-width="0.2"/>
<path d="M20.4125 8.75009V8.75V6.25V6.24991C20.4121 5.80913 20.2368 5.38652 19.9252 5.07484C19.6135 4.76316 19.1909 4.58789 18.7501 4.5875H18.75L3.75 4.5875L3.74991 4.5875C3.30913 4.58789 2.88652 4.76316 2.57484 5.07484C2.26316 5.38652 2.08789 5.80913 2.0875 6.24991V6.25L2.0875 8.75L2.0875 8.75009C2.08789 9.19087 2.26316 9.61348 2.57484 9.92516C2.88652 10.2368 3.30913 10.4121 3.74991 10.4125H3.75H18.75H18.7501C19.1909 10.4121 19.6135 10.2368 19.9252 9.92516C20.2368 9.61348 20.4121 9.19087 20.4125 8.75009ZM19.5875 8.74989C19.5873 8.97197 19.4989 9.18488 19.3419 9.34191C19.1849 9.49894 18.972 9.58726 18.7499 9.5875H3.75011C3.52803 9.58726 3.31512 9.49894 3.15809 9.34191C3.00106 9.18488 2.91274 8.97197 2.9125 8.74989V6.25011C2.9125 6.25009 2.9125 6.25007 2.9125 6.25005C2.91275 6.028 3.00107 5.81511 3.15809 5.65809C3.31512 5.50106 3.52803 5.41274 3.75011 5.4125H18.7499C18.7499 5.4125 18.7499 5.4125 18.75 5.4125C18.972 5.41275 19.1849 5.50107 19.3419 5.65809C19.4989 5.81512 19.5873 6.02803 19.5875 6.25011V8.74989Z" fill="#A5AAB5" stroke="#A5AAB5" stroke-width="0.2"/>
<path d="M10 22.0875H5C4.8906 22.0875 4.78568 22.131 4.70832 22.2083C4.63096 22.2857 4.5875 22.3906 4.5875 22.5C4.5875 22.6094 4.63096 22.7143 4.70832 22.7917C4.78568 22.869 4.8906 22.9125 5 22.9125H10C10.1094 22.9125 10.2143 22.869 10.2917 22.7917C10.369 22.7143 10.4125 22.6094 10.4125 22.5C10.4125 22.3906 10.369 22.2857 10.2917 22.2083C10.2143 22.131 10.1094 22.0875 10 22.0875Z" fill="#A5AAB5" stroke="#A5AAB5" stroke-width="0.2"/>
<path d="M12.5 14.5875H5C4.8906 14.5875 4.78568 14.631 4.70832 14.7083C4.63096 14.7857 4.5875 14.8906 4.5875 15C4.5875 15.1094 4.63096 15.2143 4.70832 15.2917C4.78568 15.369 4.8906 15.4125 5 15.4125H12.5C12.6094 15.4125 12.7143 15.369 12.7917 15.2917C12.869 15.2143 12.9125 15.1094 12.9125 15C12.9125 14.8906 12.869 14.7857 12.7917 14.7083C12.7143 14.631 12.6094 14.5875 12.5 14.5875Z" fill="#A5AAB5" stroke="#A5AAB5" stroke-width="0.2"/>
<path d="M15 7.0875H5C4.8906 7.0875 4.78568 7.13096 4.70832 7.20832C4.63096 7.28568 4.5875 7.3906 4.5875 7.5C4.5875 7.6094 4.63096 7.71432 4.70832 7.79168C4.78568 7.86904 4.8906 7.9125 5 7.9125H15C15.1094 7.9125 15.2143 7.86904 15.2917 7.79168C15.369 7.71432 15.4125 7.6094 15.4125 7.5C15.4125 7.3906 15.369 7.28568 15.2917 7.20832C15.2143 7.13096 15.1094 7.0875 15 7.0875Z" fill="#A5AAB5" stroke="#A5AAB5" stroke-width="0.2"/>
</svg>
