<svg width="40" height="40" viewBox="0 0 40 40" fill="none" xmlns="http://www.w3.org/2000/svg">
<g clip-path="url(#clip0_247_10845)">
<path d="M31.1441 21.041C31.3692 23.1774 31.079 25.3881 30.1899 27.4763V27.4771L33.2762 31.463C33.5524 31.8198 34.0703 31.8688 34.4123 31.5745C37.1836 29.1897 39.0173 25.7472 39.289 21.8734C39.3206 21.4225 38.9578 21.0411 38.5057 21.0411H31.1441V21.041Z" fill="#2C8D94"/>
<path d="M23.395 0.785002V10.5314C26.0096 11.6629 28.1801 13.6333 29.5659 16.1004H38.5258C38.9688 16.1004 39.3273 15.7337 39.3102 15.291C38.9912 7.00563 32.3854 0.415487 24.213 0.00100847C23.7671 -0.0215909 23.395 0.338586 23.395 0.785002V0.785002Z" fill="#2C8D94"/>
<path d="M18.4022 35.3728C11.2688 35.4466 5.3737 29.6629 5.31603 22.5293C5.25788 15.3399 11.09 9.47207 18.2663 9.47207V5.64972C18.2663 5.20244 17.8929 4.84461 17.4461 4.8651C8.11999 5.29354 0.689043 12.9903 0.688965 22.4228C0.688965 32.1492 8.65555 40.0623 18.3817 39.9998C22.0496 39.9762 25.4498 38.8297 28.2566 36.8869C28.6259 36.6313 28.7036 36.1169 28.4287 35.7618L26.088 32.7386C23.9466 34.3656 21.2862 35.343 18.4022 35.3728V35.3728Z" fill="#2C8D94"/>
<path d="M7.66943 22.4228C7.66943 28.2656 12.4231 33.0193 18.266 33.0193C24.1083 33.0193 28.8626 28.2666 28.8626 22.4228C28.8626 16.58 24.1083 11.8262 18.266 11.8262C12.4231 11.8262 7.66943 16.5799 7.66943 22.4228V22.4228ZM19.4431 15.3832V16.5061C20.6498 16.5061 21.718 17.0194 22.4712 17.8228C22.9154 18.2968 22.891 19.0423 22.4171 19.4864C21.946 19.9277 21.2042 19.9109 20.7535 19.4323C20.4161 19.0729 19.9563 18.8641 19.4909 18.8602C18.5385 18.8602 17.8946 18.8602 16.9462 18.8602C16.2865 18.8602 15.7534 19.3947 15.7534 20.053C15.7534 20.7105 16.2886 21.2457 16.9469 21.2457H19.5859C21.5414 21.2457 23.1327 22.8371 23.1327 24.7926C23.1327 26.6198 21.7273 28.3402 19.4431 28.3402V29.4623C19.4431 30.112 18.9165 30.6394 18.266 30.6394C17.6163 30.6394 17.089 30.112 17.089 29.4623V28.3402C16.2599 28.3402 15.443 28.2504 14.4861 27.5869C13.9525 27.2165 13.8199 26.4828 14.1903 25.9492C14.5607 25.4148 15.2944 25.2822 15.828 25.6526C16.1105 25.8503 16.4613 25.9815 16.8104 25.9861H19.5859C20.2413 25.9861 20.7786 25.4569 20.7786 24.7926C20.7786 24.135 20.2435 23.5998 19.5859 23.5998C18.4181 23.5998 18.1774 23.5998 16.9469 23.5998C14.9907 23.5998 13.3993 22.0084 13.3993 20.053C13.3993 18.22 14.8098 16.5061 17.089 16.5061V15.3832C17.089 14.7335 17.6163 14.2062 18.266 14.2062C18.9165 14.2062 19.4431 14.7335 19.4431 15.3832Z" fill="#24BDC7"/>
</g>
<defs>
<clipPath id="clip0_247_10845">
<rect width="40" height="40" fill="white"/>
</clipPath>
</defs>
</svg>
