<svg width="21" height="19" viewBox="0 0 21 19" fill="none" xmlns="http://www.w3.org/2000/svg">
<path d="M0 1.625C0 1.2769 0.138281 0.943064 0.384422 0.696922C0.630564 0.450781 0.964403 0.3125 1.3125 0.3125H19.6875C20.0356 0.3125 20.3694 0.450781 20.6156 0.696922C20.8617 0.943064 21 1.2769 21 1.625V4.25C21 4.5981 20.8617 4.93194 20.6156 5.17808C20.3694 5.42422 20.0356 5.5625 19.6875 5.5625V15.4062C19.6875 16.2765 19.3418 17.1111 18.7264 17.7264C18.1111 18.3418 17.2765 18.6875 16.4062 18.6875H4.59375C3.72351 18.6875 2.88891 18.3418 2.27356 17.7264C1.6582 17.1111 1.3125 16.2765 1.3125 15.4062V5.5625C0.964403 5.5625 0.630564 5.42422 0.384422 5.17808C0.138281 4.93194 0 4.5981 0 4.25V1.625ZM2.625 5.5625V15.4062C2.625 15.9284 2.83242 16.4292 3.20163 16.7984C3.57085 17.1676 4.07161 17.375 4.59375 17.375H16.4062C16.9284 17.375 17.4292 17.1676 17.7984 16.7984C18.1676 16.4292 18.375 15.9284 18.375 15.4062V5.5625H2.625ZM19.6875 1.625H1.3125V4.25H19.6875V1.625ZM6.5625 8.84375C6.5625 8.6697 6.63164 8.50278 6.75471 8.37971C6.87778 8.25664 7.0447 8.1875 7.21875 8.1875H13.7812C13.9553 8.1875 14.1222 8.25664 14.2453 8.37971C14.3684 8.50278 14.4375 8.6697 14.4375 8.84375C14.4375 9.0178 14.3684 9.18472 14.2453 9.30779C14.1222 9.43086 13.9553 9.5 13.7812 9.5H7.21875C7.0447 9.5 6.87778 9.43086 6.75471 9.30779C6.63164 9.18472 6.5625 9.0178 6.5625 8.84375Z" fill="#A5AAB5"/>
</svg>
