<svg width="35" height="37" viewBox="0 0 35 37" fill="none" xmlns="http://www.w3.org/2000/svg">
<path d="M17.5684 0.952148C7.95635 0.952148 0 8.87853 0 18.6218C0 28.365 7.95635 36.43 17.5684 36.43C27.1804 36.43 35 28.365 35 18.6218C35 8.87853 27.1804 0.952148 17.5684 0.952148ZM26.7969 20.7005H19.6191V28.1148C19.6191 29.2609 18.6983 30.1936 17.5684 30.1936C16.4377 30.1936 15.5176 29.2609 15.5176 28.1148V20.7005H8.20312C7.07246 20.7005 6.15234 19.7679 6.15234 18.6218C6.15234 17.4757 7.07246 16.543 8.20312 16.543H15.5176V9.26726C15.5176 8.12116 16.4377 7.18848 17.5684 7.18848C18.6983 7.18848 19.6191 8.12116 19.6191 9.26726V16.543H26.7969C27.9269 16.543 28.8477 17.4757 28.8477 18.6218C28.8477 19.7679 27.9269 20.7005 26.7969 20.7005Z" fill="#017D34"/>
</svg>
