<svg width="9" height="11" viewBox="0 0 9 11" fill="none" xmlns="http://www.w3.org/2000/svg">
<path d="M0.989235 2.96826C1.12044 2.96826 1.24626 3.02038 1.33904 3.11315C1.43181 3.20593 1.48393 3.33176 1.48393 3.46296V8.99909C1.49812 9.24926 1.61059 9.48368 1.79683 9.65129C1.98307 9.81891 2.228 9.90615 2.47827 9.894H6.42594C6.67621 9.90615 6.92114 9.81891 7.10738 9.65129C7.29362 9.48368 7.40609 9.24926 7.42028 8.99909V3.46296C7.42028 3.33176 7.4724 3.20593 7.56517 3.11315C7.65794 3.02038 7.78377 2.96826 7.91497 2.96826C8.04617 2.96826 8.172 3.02038 8.26477 3.11315C8.35755 3.20593 8.40967 3.33176 8.40967 3.46296V8.99909C8.39555 9.51171 8.17885 9.99784 7.80704 10.351C7.43523 10.7042 6.93861 10.8956 6.42594 10.8834H2.47827C1.9656 10.8956 1.46898 10.7042 1.09717 10.351C0.725356 9.99784 0.50866 9.51171 0.49454 8.99909V3.46296C0.49454 3.33176 0.546659 3.20593 0.639432 3.11315C0.732206 3.02038 0.858034 2.96826 0.989235 2.96826Z" fill="#C93126"/>
<path d="M0.494473 1.48409H2.47325V0.494696C2.47325 0.363494 2.52537 0.237666 2.61815 0.144893C2.71092 0.0521195 2.83675 0 2.96795 0H5.93612C6.06733 0 6.19315 0.0521195 6.28593 0.144893C6.3787 0.237666 6.43082 0.363494 6.43082 0.494696V1.48409H8.4096C8.5408 1.48409 8.66663 1.53621 8.7594 1.62898C8.85218 1.72175 8.9043 1.84758 8.9043 1.97878C8.9043 2.10998 8.85218 2.23581 8.7594 2.32858C8.66663 2.42136 8.5408 2.47348 8.4096 2.47348H0.494473C0.363271 2.47348 0.237443 2.42136 0.14467 2.32858C0.0518961 2.23581 -0.00022316 2.10998 -0.00022316 1.97878C-0.00022316 1.84758 0.0518961 1.72175 0.14467 1.62898C0.237443 1.53621 0.363271 1.48409 0.494473 1.48409ZM5.44143 1.48409V0.989391H3.46265V1.48409H5.44143Z" fill="#C93126"/>
<path d="M4.94664 7.91508V4.45222C4.94664 4.32101 4.99876 4.19519 5.09154 4.10241C5.18431 4.00964 5.31014 3.95752 5.44134 3.95752C5.57254 3.95752 5.69837 4.00964 5.79114 4.10241C5.88392 4.19519 5.93604 4.32101 5.93604 4.45222V7.91508C5.93604 8.04629 5.88392 8.17211 5.79114 8.26489C5.69837 8.35766 5.57254 8.40978 5.44134 8.40978C5.31014 8.40978 5.18431 8.35766 5.09154 8.26489C4.99876 8.17211 4.94664 8.04629 4.94664 7.91508Z" fill="#C93126"/>
<path d="M2.96813 7.91508V4.45222C2.96813 4.32101 3.02025 4.19519 3.11302 4.10241C3.20579 4.00964 3.33162 3.95752 3.46282 3.95752C3.59402 3.95752 3.71985 4.00964 3.81263 4.10241C3.9054 4.19519 3.95752 4.32101 3.95752 4.45222V7.91508C3.95752 8.04629 3.9054 8.17211 3.81263 8.26489C3.71985 8.35766 3.59402 8.40978 3.46282 8.40978C3.33162 8.40978 3.20579 8.35766 3.11302 8.26489C3.02025 8.17211 2.96813 8.04629 2.96813 7.91508Z" fill="#C93126"/>
</svg>
