<svg width="21" height="21" viewBox="0 0 21 21" fill="none" xmlns="http://www.w3.org/2000/svg">
<path d="M10.5001 6.23975C9.94064 6.23975 9.38664 6.34994 8.86975 6.56405C8.35285 6.77815 7.88319 7.09197 7.48758 7.48758C7.09197 7.88319 6.77815 8.35285 6.56405 8.86975C6.34994 9.38664 6.23975 9.94064 6.23975 10.5001C6.23975 11.0596 6.34994 11.6136 6.56405 12.1305C6.77815 12.6474 7.09197 13.117 7.48758 13.5127C7.88319 13.9083 8.35285 14.2221 8.86975 14.4362C9.38664 14.6503 9.94064 14.7605 10.5001 14.7605C11.63 14.7605 12.7137 14.3116 13.5127 13.5127C14.3116 12.7137 14.7605 11.63 14.7605 10.5001C14.7605 9.3702 14.3116 8.28656 13.5127 7.48758C12.7137 6.68861 11.63 6.23975 10.5001 6.23975ZM7.55225 10.5001C7.55225 9.7183 7.86283 8.96849 8.41566 8.41566C8.96849 7.86282 9.7183 7.55225 10.5001 7.55225C11.2819 7.55225 12.0318 7.86282 12.5846 8.41566C13.1374 8.96849 13.448 9.7183 13.448 10.5001C13.448 11.2819 13.1374 12.0317 12.5846 12.5846C12.0318 13.1374 11.2819 13.448 10.5001 13.448C9.7183 13.448 8.96849 13.1374 8.41566 12.5846C7.86283 12.0317 7.55225 11.2819 7.55225 10.5001Z" fill="#A5AAB5"/>
<path d="M12.8576 1.76276C12.1659 -0.586611 8.83476 -0.586611 8.14307 1.76276L8.0197 2.18145C7.97139 2.34545 7.887 2.49656 7.7727 2.62371C7.65841 2.75085 7.51711 2.85081 7.35917 2.91626C7.20122 2.9817 7.03064 3.01097 6.85991 3.00192C6.68918 2.99287 6.52265 2.94573 6.37251 2.86395L5.98926 2.65395C3.83676 1.4832 1.48345 3.83783 2.65551 5.98901L2.8642 6.37226C2.94597 6.5224 2.99311 6.68894 3.00216 6.85966C3.01121 7.03039 2.98194 7.20098 2.9165 7.35892C2.85106 7.51687 2.7511 7.65817 2.62395 7.77246C2.49681 7.88675 2.3457 7.97114 2.1817 8.01945L1.76301 8.14282C-0.586367 8.83451 -0.586367 12.1656 1.76301 12.8573L2.1817 12.9807C2.3457 13.029 2.49681 13.1134 2.62395 13.2277C2.7511 13.342 2.85106 13.4833 2.9165 13.6412C2.98194 13.7992 3.01121 13.9698 3.00216 14.1405C2.99311 14.3112 2.94597 14.4777 2.8642 14.6279L2.6542 15.0111C1.48345 17.1636 3.83676 19.5183 5.98926 18.3449L6.37251 18.1362C6.52265 18.0544 6.68918 18.0073 6.85991 17.9982C7.03064 17.9892 7.20122 18.0184 7.35917 18.0839C7.51711 18.1493 7.65841 18.2493 7.7727 18.3764C7.887 18.5036 7.97139 18.6547 8.0197 18.8187L8.14307 19.2374C8.83476 21.5868 12.1659 21.5868 12.8576 19.2374L12.9809 18.8187C13.0293 18.6547 13.1136 18.5036 13.2279 18.3764C13.3422 18.2493 13.4835 18.1493 13.6415 18.0839C13.7994 18.0184 13.97 17.9892 14.1407 17.9982C14.3115 18.0073 14.478 18.0544 14.6281 18.1362L15.0114 18.3462C17.1639 19.5183 19.5185 17.1623 18.3451 15.0111L18.1364 14.6279C18.0547 14.4777 18.0075 14.3112 17.9985 14.1405C17.9894 13.9698 18.0187 13.7992 18.0841 13.6412C18.1496 13.4833 18.2495 13.342 18.3767 13.2277C18.5038 13.1134 18.6549 13.029 18.8189 12.9807L19.2376 12.8573C21.587 12.1656 21.587 8.83451 19.2376 8.14282L18.8189 8.01945C18.6549 7.97114 18.5038 7.88675 18.3767 7.77246C18.2495 7.65817 18.1496 7.51687 18.0841 7.35892C18.0187 7.20098 17.9894 7.03039 17.9985 6.85966C18.0075 6.68894 18.0547 6.5224 18.1364 6.37226L18.3464 5.98901C19.5185 3.83651 17.1626 1.4832 15.0114 2.65526L14.6281 2.86395C14.478 2.94573 14.3115 2.99287 14.1407 3.00192C13.97 3.01097 13.7994 2.9817 13.6415 2.91626C13.4835 2.85081 13.3422 2.75085 13.2279 2.62371C13.1136 2.49656 13.0293 2.34545 12.9809 2.18145L12.8576 1.76276ZM9.40176 2.1342C9.72463 1.03826 11.276 1.03826 11.5989 2.1342L11.7223 2.55289C11.826 2.90475 12.0071 3.22894 12.2524 3.50169C12.4977 3.77445 12.8009 3.98885 13.1399 4.12917C13.4788 4.2695 13.8448 4.3322 14.2111 4.31267C14.5774 4.29315 14.9347 4.19189 15.2568 4.01632L15.6388 3.80633C16.6415 3.26164 17.7388 4.35758 17.1928 5.36164L16.9841 5.74489C16.8088 6.06701 16.7078 6.42427 16.6884 6.7905C16.6691 7.15672 16.732 7.52263 16.8724 7.8614C17.0129 8.20018 17.2273 8.50324 17.5001 8.74838C17.7729 8.99352 18.097 9.17453 18.4488 9.27814L18.8662 9.40151C19.9621 9.72439 19.9621 11.2758 18.8662 11.5986L18.4475 11.722C18.0956 11.8257 17.7715 12.0069 17.4987 12.2522C17.2259 12.4975 17.0116 12.8007 16.8712 13.1396C16.7309 13.4785 16.6682 13.8446 16.6877 14.2109C16.7072 14.5772 16.8085 14.9345 16.9841 15.2566L17.1941 15.6385C17.7388 16.6413 16.6428 17.7385 15.6388 17.1925L15.2568 16.9838C14.9346 16.8083 14.5773 16.7071 14.2109 16.6876C13.8445 16.6682 13.4784 16.731 13.1395 16.8715C12.8005 17.0119 12.4973 17.2265 12.2521 17.4994C12.0069 17.7723 11.8258 18.0966 11.7223 18.4486L11.5989 18.8659C11.276 19.9619 9.72463 19.9619 9.40176 18.8659L9.27838 18.4473C9.17462 18.0956 8.99351 17.7716 8.7483 17.499C8.5031 17.2263 8.20002 17.012 7.86126 16.8717C7.5225 16.7314 7.15665 16.6686 6.7905 16.688C6.42435 16.7074 6.06717 16.8085 5.74513 16.9838L5.36188 17.1938C4.35913 17.7385 3.26188 16.6426 3.80788 15.6385L4.01657 15.2566C4.19238 14.9344 4.29384 14.577 4.31349 14.2106C4.33315 13.8441 4.2705 13.4779 4.13016 13.1388C3.98981 12.7997 3.77533 12.4963 3.50244 12.2509C3.22955 12.0055 2.90518 11.8244 2.55313 11.7207L2.13445 11.5973C1.03851 11.2745 1.03851 9.72307 2.13445 9.4002L2.55313 9.27682C2.90463 9.17302 3.22847 8.99193 3.50094 8.74682C3.77342 8.50171 3.98765 8.19877 4.12794 7.86019C4.26823 7.5216 4.33104 7.15592 4.31177 6.78993C4.2925 6.42393 4.19164 6.06687 4.01657 5.74489L3.80657 5.36164C3.26188 4.35889 4.35782 3.26164 5.36188 3.80764L5.74513 4.01632C6.06717 4.19164 6.42435 4.2927 6.7905 4.3121C7.15665 4.3315 7.5225 4.26874 7.86126 4.12843C8.20002 3.98812 8.5031 3.77381 8.7483 3.5012C8.99351 3.22858 9.17462 2.90457 9.27838 2.55289L9.40176 2.1342Z" fill="#A5AAB5"/>
</svg>
