<svg width="65" height="65" viewBox="0 0 65 65" fill="none" xmlns="http://www.w3.org/2000/svg">
<circle cx="32.5" cy="32.5" r="32.5" fill="#FFE9D8"/>
<g clip-path="url(#clip0_247_10872)">
<path d="M32.8015 31.2348C32.7953 31.2283 32.7935 31.2196 32.7871 31.2132L26.4337 24.8597V20.8676C26.4337 20.5718 26.3163 20.2892 26.1076 20.0804L19.4279 13.3266C19.1105 13.0092 18.631 12.9124 18.2146 13.0853C17.7982 13.257 17.5275 13.6637 17.5275 14.1137V17.4536H14.1134C13.6634 17.4535 13.2568 17.7242 13.085 18.1406C12.9122 18.557 13.0079 19.0354 13.3264 19.354L20.0803 26.1078C20.2891 26.3166 20.5717 26.434 20.8674 26.434H24.8596L31.213 32.7874C31.2194 32.7938 31.228 32.7956 31.2346 32.8018C31.668 33.2155 32.3264 33.221 32.7656 32.8018C33.2282 32.3603 33.2178 31.6708 32.8015 31.2348Z" fill="#FCAE73"/>
<path d="M32.0008 13.0007C29.1522 13.0007 26.4589 13.7255 24.0336 14.8575L27.4487 18.2726C28.882 17.796 30.4096 17.5281 32.0009 17.5281C39.9808 17.528 46.4734 24.0207 46.4734 32.0006C46.4734 39.9805 39.9808 46.4732 32.0008 46.4732C24.0208 46.4732 17.5282 39.9806 17.5282 32.0006C17.5282 30.4093 17.7962 28.8817 18.2728 27.4484L14.8577 24.0333C13.7258 26.4587 13.001 29.152 13.001 32.0006C13.001 42.4364 21.565 51.0005 32.0008 51.0005C42.4366 51.0005 51.0007 42.4364 51.0007 32.0006C51.0007 21.5648 42.4368 13.0007 32.0008 13.0007Z" fill="#F79042"/>
<path d="M31.9999 21.9807C30.8232 21.9807 29.7099 22.2219 28.6601 22.5962V23.9376L31.2338 26.5113C31.4866 26.476 31.7376 26.4338 31.9999 26.4338C35.0691 26.4338 37.5663 28.9311 37.5663 32.0002C37.5663 35.0694 35.0691 37.5667 31.9999 37.5667C28.9308 37.5667 26.4335 35.0694 26.4335 32.0002C26.4335 31.7378 26.4757 31.4868 26.511 31.2341L23.9374 28.6603H22.596C22.2217 29.7102 21.9805 30.8234 21.9805 32.0002C21.9805 37.5252 26.4749 42.0196 31.9999 42.0196C37.5249 42.0196 42.0195 37.5252 42.0195 32.0002C42.0195 26.4751 37.525 21.9807 31.9999 21.9807Z" fill="#F79042"/>
</g>
<defs>
<clipPath id="clip0_247_10872">
<rect width="38" height="38" fill="white" transform="translate(13 13)"/>
</clipPath>
</defs>
</svg>
