<svg width="11" height="14" viewBox="0 0 11 14" fill="none" xmlns="http://www.w3.org/2000/svg">
<path d="M1.21112 3.63501C1.3718 3.63501 1.52589 3.69884 1.6395 3.81245C1.75311 3.92606 1.81694 4.08015 1.81694 4.24082V11.0205C1.83432 11.3268 1.97204 11.6139 2.20012 11.8192C2.4282 12.0245 2.72814 12.1313 3.03463 12.1164H7.86902C8.17551 12.1313 8.47545 12.0245 8.70353 11.8192C8.93161 11.6139 9.06933 11.3268 9.08671 11.0205V4.24082C9.08671 4.08015 9.15054 3.92606 9.26415 3.81245C9.37776 3.69884 9.53185 3.63501 9.69253 3.63501C9.8532 3.63501 10.0073 3.69884 10.1209 3.81245C10.2345 3.92606 10.2983 4.08015 10.2983 4.24082V11.0205C10.281 11.6483 10.0157 12.2436 9.56035 12.6761C9.10502 13.1086 8.49685 13.343 7.86902 13.328H3.03463C2.4068 13.343 1.79863 13.1086 1.3433 12.6761C0.887973 12.2436 0.622602 11.6483 0.60531 11.0205V4.24082C0.60531 4.08015 0.669137 3.92606 0.782749 3.81245C0.896361 3.69884 1.05045 3.63501 1.21112 3.63501Z" fill="white"/>
<path d="M0.605453 1.81744H3.02871V0.605814C3.02871 0.445142 3.09254 0.291051 3.20615 0.177439C3.31976 0.0638267 3.47385 0 3.63452 0H7.26941C7.43008 0 7.58417 0.0638267 7.69779 0.177439C7.8114 0.291051 7.87523 0.445142 7.87523 0.605814V1.81744H10.2985C10.4592 1.81744 10.6132 1.88127 10.7269 1.99488C10.8405 2.10849 10.9043 2.26259 10.9043 2.42326C10.9043 2.58393 10.8405 2.73802 10.7269 2.85163C10.6132 2.96524 10.4592 3.02907 10.2985 3.02907H0.605453C0.444781 3.02907 0.290689 2.96524 0.177077 2.85163C0.0634651 2.73802 -0.000361443 2.58393 -0.000361443 2.42326C-0.000361443 2.26259 0.0634651 2.10849 0.177077 1.99488C0.290689 1.88127 0.444781 1.81744 0.605453 1.81744ZM6.6636 1.81744V1.21163H4.24034V1.81744H6.6636Z" fill="white"/>
<path d="M6.0579 9.69295V5.45225C6.0579 5.29158 6.12173 5.13749 6.23534 5.02387C6.34895 4.91026 6.50305 4.84644 6.66372 4.84644C6.82439 4.84644 6.97848 4.91026 7.09209 5.02387C7.2057 5.13749 7.26953 5.29158 7.26953 5.45225V9.69295C7.26953 9.85362 7.2057 10.0077 7.09209 10.1213C6.97848 10.2349 6.82439 10.2988 6.66372 10.2988C6.50305 10.2988 6.34895 10.2349 6.23534 10.1213C6.12173 10.0077 6.0579 9.85362 6.0579 9.69295Z" fill="white"/>
<path d="M3.63456 9.69295V5.45225C3.63456 5.29158 3.69839 5.13749 3.812 5.02387C3.92561 4.91026 4.0797 4.84644 4.24038 4.84644C4.40105 4.84644 4.55514 4.91026 4.66875 5.02387C4.78236 5.13749 4.84619 5.29158 4.84619 5.45225V9.69295C4.84619 9.85362 4.78236 10.0077 4.66875 10.1213C4.55514 10.2349 4.40105 10.2988 4.24038 10.2988C4.0797 10.2988 3.92561 10.2349 3.812 10.1213C3.69839 10.0077 3.63456 9.85362 3.63456 9.69295Z" fill="white"/>
</svg>
