<svg width="14" height="15" viewBox="0 0 14 15" fill="none" xmlns="http://www.w3.org/2000/svg">
<path d="M9.08835 7.50044C9.08835 8.65544 8.15502 9.58878 7.00002 9.58878C5.84502 9.58878 4.91168 8.65544 4.91168 7.50044C4.91168 6.34544 5.84502 5.41211 7.00002 5.41211C8.15502 5.41211 9.08835 6.34544 9.08835 7.50044Z" stroke="#C4C4C4" stroke-linecap="round" stroke-linejoin="round"/>
<path d="M7 12.3241C9.05917 12.3241 10.9783 11.1108 12.3142 9.01075C12.8392 8.18825 12.8392 6.80575 12.3142 5.98325C10.9783 3.88325 9.05917 2.66992 7 2.66992C4.94083 2.66992 3.02167 3.88325 1.68583 5.98325C1.16083 6.80575 1.16083 8.18825 1.68583 9.01075C3.02167 11.1108 4.94083 12.3241 7 12.3241Z" stroke="#C4C4C4" stroke-linecap="round" stroke-linejoin="round"/>
</svg>
