<svg width="14" height="15" viewBox="0 0 14 15" fill="none" xmlns="http://www.w3.org/2000/svg">
<path d="M12.25 3.98796C10.3075 3.79546 8.35333 3.69629 6.405 3.69629C5.25 3.69629 4.095 3.75462 2.94 3.87129L1.75 3.98796" stroke="#C4C4C4" stroke-linecap="round" stroke-linejoin="round"/>
<path d="M4.95837 3.39949L5.08671 2.63533C5.18004 2.08116 5.25004 1.66699 6.23587 1.66699H7.76421C8.75004 1.66699 8.82587 2.10449 8.91337 2.64116L9.04171 3.39949" stroke="#C4C4C4" stroke-linecap="round" stroke-linejoin="round"/>
<path d="M10.9958 5.83203L10.6167 11.7062C10.5525 12.622 10.5 13.3337 8.87248 13.3337H5.12748C3.49998 13.3337 3.44748 12.622 3.38332 11.7062L3.00415 5.83203" stroke="#C4C4C4" stroke-linecap="round" stroke-linejoin="round"/>
<path d="M6.02588 10.125H7.96838" stroke="#C4C4C4" stroke-width="1.5" stroke-linecap="round" stroke-linejoin="round"/>
<path d="M5.54163 7.79199H8.45829" stroke="#C4C4C4" stroke-width="1.5" stroke-linecap="round" stroke-linejoin="round"/>
</svg>
